<?xml version="1.0" encoding="utf-8"?>
<!-- Generator: Adobe Illustrator 19.0.0, SVG Export Plug-In . SVG Version: 6.00 Build 0)  -->
<svg version="1.1" id="Modo_de_isolamento" xmlns="http://www.w3.org/2000/svg" xmlns:xlink="http://www.w3.org/1999/xlink" x="0px"
	 y="0px" viewBox="0 0 16.9 11.3" style="enable-background:new 0 0 16.9 11.3;" xml:space="preserve">
<style type="text/css">
	.st0{fill:#FFFFFF;}
	.st1{fill:#EF372E;}
	.st2{fill:#00B14C;stroke:#000000;stroke-width:4.790000e-02;stroke-linecap:round;stroke-linejoin:round;}
	.st3{fill:#FFEC00;stroke:#000000;stroke-width:4.790000e-02;stroke-linecap:round;stroke-linejoin:round;}
	.st4{fill:#EF372E;stroke:#000000;stroke-width:4.790000e-02;stroke-linecap:round;stroke-linejoin:round;}
	.st5{fill:none;stroke:#000000;stroke-width:4.790000e-02;stroke-linecap:round;stroke-linejoin:round;}
	.st6{fill:#FFEC00;stroke:#000000;stroke-width:5.380000e-02;stroke-linecap:round;stroke-linejoin:round;}
	.st7{fill:#00BFF3;stroke:#000000;stroke-width:4.790000e-02;stroke-linecap:round;stroke-linejoin:round;}
	.st8{fill:#FFFFFF;stroke:#000000;stroke-width:4.790000e-02;stroke-linecap:round;stroke-linejoin:round;}
	.st9{fill:#FFEC00;stroke:#000000;stroke-width:5.010000e-02;stroke-linecap:round;stroke-linejoin:round;}
</style>
<g id="XMLID_786_">
	<g id="XMLID_1270_">
		<g id="XMLID_1272_">
			<path id="XMLID_707_" class="st0" d="M14.6,11.3H2.3C1,11.3,0,10.3,0,9V2.2C0,1,1,0,2.3,0h12.4c1.2,0,2.2,1,2.2,2.2V9
				C16.9,10.3,15.9,11.3,14.6,11.3z"/>
			<path id="XMLID_706_" class="st1" d="M14.6,11.3h-3.3V0h3.3c1.2,0,2.2,1,2.2,2.2V9C16.9,10.3,15.9,11.3,14.6,11.3z"/>
		</g>
		<path id="XMLID_705_" class="st1" d="M5.6,11.3H2.2C1,11.3,0,10.3,0,9V2.2C0,1,1,0,2.2,0h3.3V11.3z"/>
	</g>
	<g id="XMLID_787_">
		<rect id="XMLID_704_" x="7.9" y="3.9" class="st2" width="0.1" height="0.1"/>
		<g id="XMLID_788_">
			<line id="XMLID_703_" class="st2" x1="7.7" y1="3.7" x2="7.7" y2="3.7"/>
			<g id="XMLID_1265_">
				<path id="XMLID_702_" class="st3" d="M8.4,7.7C8.4,7.8,8.4,7.8,8.4,7.7C8.3,7.8,8.3,7.8,8.2,7.8c0,0,0,0,0.1-0.1"/>
				<path id="XMLID_701_" class="st4" d="M8.3,7.7C8.3,7.7,8.3,7.8,8.3,7.7C8.3,7.8,8.3,7.8,8.3,7.7c0,0.1,0,0.1,0,0.1
					C8.3,7.8,8.3,7.8,8.3,7.7C8.3,7.8,8.4,7.8,8.3,7.7"/>
			</g>
			<g id="XMLID_1262_">
				<path id="XMLID_700_" class="st3" d="M7.7,7.9C7.7,7.9,7.7,7.9,7.7,7.9c0,0.1,0,0.1,0,0.1c0,0,0,0,0,0c0.1,0,0.1,0,0.2-0.1
					c0,0,0-0.1-0.1-0.1"/>
				<path id="XMLID_699_" class="st4" d="M7.7,7.9C7.7,7.9,7.7,7.9,7.7,7.9c0,0.1,0,0.1,0.1,0.1c0,0,0,0,0.1,0c0,0,0,0,0.1,0
					C7.8,7.9,7.8,7.9,7.7,7.9"/>
			</g>
			<g id="XMLID_1259_">
				<path id="XMLID_698_" class="st3" d="M7.7,7.8C7.7,7.8,7.7,7.8,7.7,7.8c0,0,0-0.1,0.1-0.1c0,0,0.1,0,0.1,0.1c0,0,0,0,0,0"/>
				<path id="XMLID_697_" class="st4" d="M7.7,7.8c0,0,0-0.1,0-0.1c0,0,0.1,0,0.1,0.1"/>
			</g>
			<g id="XMLID_1256_">
				<path id="XMLID_696_" class="st3" d="M9.1,7.7C9.1,7.7,9.1,7.7,9.1,7.7c0,0.1,0,0.1,0,0.1c0,0,0,0.1-0.1,0.1c0,0,0,0,0,0
					c0,0,0,0,0,0c0,0,0,0,0.1,0c0,0,0.1-0.1,0.1-0.2C9.2,7.8,9.2,7.7,9.1,7.7"/>
				<path id="XMLID_695_" class="st4" d="M9.1,7.7c0,0,0,0.1,0,0.1C9.1,7.9,9,7.9,9,7.9c0,0,0,0,0.1,0c0,0,0,0,0,0c0,0,0,0,0,0
					c0,0,0.1-0.1,0.1-0.2C9.2,7.7,9.2,7.7,9.1,7.7"/>
			</g>
			<g id="XMLID_1247_">
				<g id="XMLID_1253_">
					<path id="XMLID_694_" class="st2" d="M9,7.7c0,0,0.2,0,0.2,0c0,0,0.1,0.1,0.1,0.1c0,0,0,0,0,0c0,0,0,0,0,0s-0.1,0-0.2-0.1
						C9.1,7.8,9,7.8,9,7.7"/>
					<path id="XMLID_693_" class="st2" d="M9.4,8C9.4,8,9.4,8,9.4,8C9.4,7.9,9.3,7.9,9.4,8C9.3,7.9,9.3,7.8,9.3,7.8c0,0,0.1,0,0.1,0
						C9.4,7.9,9.5,7.9,9.4,8c0.1-0.1,0.1,0,0.1,0C9.5,8,9.5,8,9.4,8C9.5,8,9.4,8,9.4,8"/>
				</g>
				<path id="XMLID_692_" class="st2" d="M8.8,7.8c0,0-0.1,0-0.1,0c0,0-0.2,0-0.2,0V7.7C8.5,7.7,8.7,7.7,8.8,7.8
					C8.8,7.7,8.9,7.7,8.8,7.8L8.8,7.8z"/>
				<path id="XMLID_691_" class="st2" d="M8.4,7.7c0,0-0.1,0-0.2,0c0,0-0.1,0-0.1,0L8,7.7c0,0,0.1,0,0.1,0C8.2,7.7,8.4,7.7,8.4,7.7
					L8.4,7.7z"/>
				<g id="XMLID_1248_">
					<path id="XMLID_690_" class="st2" d="M8,7.8c0,0-0.2,0.1-0.4,0.1c0,0-0.1,0-0.1,0.1c0,0,0,0-0.1,0c0,0-0.1,0-0.1,0
						c0,0,0,0,0-0.1c0,0,0.1-0.1,0.2-0.1c0.1,0,0.1,0,0.2-0.1c0.1,0,0.2,0,0.2,0"/>
					<path id="XMLID_689_" class="st5" d="M7.5,7.9C7.5,7.9,7.5,7.9,7.5,7.9C7.5,7.9,7.5,7.9,7.5,7.9C7.5,8,7.5,8,7.5,8"/>
				</g>
			</g>
			<line id="XMLID_688_" class="st5" x1="10.6" y1="5.8" x2="10.6" y2="5.8"/>
			<g id="XMLID_1215_">
				<g id="XMLID_1222_">
					<g id="XMLID_1224_">
						<g id="XMLID_1240_">
							<path id="XMLID_687_" class="st2" d="M6.6,4.7c0,0,0.3-0.4,0.4-0.5c0.1-0.1,0.4-0.3,0.4-0.3S7.2,4.1,7.2,4.2
								C7.1,4.3,7.1,4.4,7.1,4.4L6.6,4.9"/>
							<path id="XMLID_686_" class="st2" d="M6.7,4.5c0,0,0.1-0.1,0.2-0.2C6.9,4.2,7.1,4,7.1,4L6.9,4.3L6.7,4.5"/>
							<path id="XMLID_685_" class="st2" d="M6.8,4.5c0,0,0.3-0.1,0.3-0.2c0.1,0,0.1,0,0.1,0L7.2,4.3c0,0-0.1,0.1-0.2,0.2
								C6.9,4.6,6.7,4.8,6.7,4.8"/>
							<path id="XMLID_684_" class="st2" d="M6.5,5.1l0-0.4c0,0,0.1-0.2,0.2-0.4c0-0.1,0.1-0.3,0.1-0.3s0,0,0,0.2
								c0,0.1-0.1,0.5-0.1,0.5S6.9,4.6,7,4.5c0.1,0,0.2-0.1,0.2-0.1S7,4.6,6.9,4.7C6.8,4.7,6.8,4.9,6.8,4.9L6.5,5.1"/>
							<path id="XMLID_683_" class="st2" d="M6.9,7.1L6.6,6.5L6.4,5.9c0,0,0-0.9,0-1c0,0,0.1-0.1,0.1-0.2c0-0.1,0-0.3,0-0.3
								s0,0.1,0,0.3c0,0.1,0,0.3,0,0.3s0.2-0.1,0.2-0.2c0.1-0.1,0.2-0.1,0.2-0.1S6.8,4.9,6.8,4.9C6.7,5,6.7,5.1,6.7,5.1L6.6,5.5
								L6.6,5.9l0.1,0.6L7,7"/>
						</g>
						<g id="XMLID_1225_">
							<path id="XMLID_682_" class="st2" d="M6.3,5.4c0,0,0.1-0.3,0.1-0.4c0-0.1,0-0.2,0-0.2c0-0.1,0-0.2,0-0.2s0,0.1,0,0.1
								c0,0.1,0,0.1,0,0.2c0,0.1,0,0.8,0,0.8"/>
							<path id="XMLID_681_" class="st2" d="M6.5,5.3c0,0,0-0.1,0.1-0.2C6.7,5,6.9,4.9,6.9,4.9S6.8,5,6.7,5.1c0,0.1-0.1,0.3-0.1,0.3
								"/>
							<path id="XMLID_680_" class="st2" d="M6.5,5.6c0,0,0.1-0.1,0.1-0.2c0.1-0.1,0.2-0.2,0.2-0.2S6.8,5.3,6.7,5.4
								c0,0.1-0.1,0.3-0.1,0.3"/>
							<path id="XMLID_679_" class="st2" d="M6.4,5.9c0,0,0-0.2,0-0.3c0-0.1-0.1-0.1-0.1-0.3c0-0.1,0-0.3,0-0.3s0,0.1,0,0.2
								c0,0.1,0.1,0.2,0.1,0.3c0,0.1,0,0.2,0,0.2"/>
							<path id="XMLID_678_" class="st2" d="M6.5,5.8c0,0,0.1-0.1,0.1-0.2c0.1-0.1,0.2-0.2,0.2-0.2S6.7,5.5,6.7,5.6
								C6.6,5.7,6.6,6,6.6,6"/>
							<path id="XMLID_677_" class="st2" d="M6.5,6c0,0,0.1-0.1,0.1-0.2c0.1-0.1,0.1-0.1,0.1-0.1S6.7,5.8,6.7,5.9
								c0,0.1-0.1,0.3-0.1,0.3"/>
							<path id="XMLID_676_" class="st2" d="M6.5,6.3c0,0-0.1-0.3-0.1-0.4C6.3,5.8,6.2,5.7,6.2,5.6c0-0.1,0-0.3,0-0.2
								c0,0,0,0.1,0.1,0.2c0,0.1,0.1,0.2,0.2,0.3c0,0.1,0,0.2,0,0.2"/>
							<path id="XMLID_675_" class="st2" d="M6.6,6.5C6.6,6.5,6.5,6.5,6.6,6.5C6.5,6.4,6.5,6.3,6.4,6.3C6.4,6.2,6.3,6.1,6.2,6
								C6.2,5.9,6.2,5.8,6.2,5.8c0,0,0,0.1,0.1,0.1c0,0.1,0.2,0.2,0.2,0.2c0,0,0,0.1,0,0.1"/>
							<path id="XMLID_674_" class="st2" d="M6.5,6.3c0,0,0-0.1,0.1-0.2C6.6,6,6.7,5.9,6.7,5.9S6.7,6,6.7,6.1c0,0.1,0,0.3,0,0.3"/>
							<path id="XMLID_673_" class="st2" d="M6.6,6.4c0,0,0-0.1,0.1-0.2C6.7,6.1,6.8,6,6.8,6s0,0.1-0.1,0.2c0,0.1,0,0.3,0,0.3"/>
							<path id="XMLID_672_" class="st2" d="M6.6,6.7c0,0,0-0.1-0.1-0.2c0-0.1-0.2-0.2-0.3-0.3C6.2,6.2,6.2,6.1,6.2,6.1
								c0,0,0,0,0.1,0.1c0.1,0.1,0.2,0.1,0.3,0.2c0.1,0.1,0.1,0.1,0.1,0.1"/>
							<path id="XMLID_671_" class="st2" d="M6.7,6.6c0,0,0-0.1,0-0.3c0.1-0.1,0.1-0.2,0.1-0.2s0,0.1-0.1,0.2c0,0.1,0,0.5,0,0.5"/>
							<path id="XMLID_670_" class="st2" d="M6.8,6.7c0,0,0-0.1,0-0.2c0-0.1,0.1-0.2,0.1-0.2s0,0.1,0,0.3c0,0.1,0,0.2,0.1,0.2
								c0,0-0.1,0.2-0.1,0.2"/>
							<path id="XMLID_669_" class="st2" d="M7,7.1L6.7,6.9c0,0,0-0.1-0.1-0.2C6.5,6.7,6.4,6.6,6.3,6.5C6.3,6.4,6.3,6.4,6.3,6.4
								c0,0,0.1,0.1,0.1,0.1c0.1,0,0.2,0.1,0.3,0.2c0.1,0.1,0.1,0.1,0.1,0.1"/>
						</g>
					</g>
					<path id="XMLID_668_" class="st2" d="M7.2,7.3c0,0-0.2-0.1-0.3-0.4C6.8,6.7,7,6.5,7,6.5s0,0.2,0,0.3C7,6.9,7.2,7.3,7.2,7.3"/>
				</g>
				<g id="XMLID_1216_">
					<path id="XMLID_667_" class="st2" d="M7,7.1C7,7.1,6.9,7,6.8,7C6.8,6.9,6.7,6.9,6.6,6.8C6.5,6.8,6.4,6.7,6.4,6.7s0,0,0.1,0.1
						C6.6,6.9,7,7.2,7,7.2l0.2,0.1"/>
					<path id="XMLID_666_" class="st2" d="M7.1,7.2C7.1,7.2,7,7,7,6.9c0-0.2,0.1-0.3,0.1-0.3s0,0.2,0,0.3C7.1,7,7.2,7,7.2,7l0,0.3"
						/>
					<path id="XMLID_665_" class="st2" d="M7.2,7.3c0,0,0-0.1,0-0.2c0-0.1,0.1-0.3,0.1-0.3s0,0.2,0,0.2c0,0.1,0.1,0.3,0.1,0.3
						s0.1,0.1,0.2,0.1c0.1,0,0.2,0.1,0.2,0.1l0.1,0.1l0,0l-0.1,0L7.2,7.4"/>
					<path id="XMLID_664_" class="st2" d="M7.2,7.4c0,0-0.3-0.1-0.3-0.1S6.8,7.2,6.7,7.2C6.6,7.1,6.5,7,6.5,7c0,0,0.1,0.1,0.2,0.1
						c0.1,0,0.1,0,0.3,0.1C7.1,7.3,7.2,7.3,7.2,7.4"/>
					<path id="XMLID_663_" class="st2" d="M7.4,7.5c0,0-0.2,0-0.4-0.1c-0.1,0-0.2-0.1-0.2-0.1c0,0-0.1-0.1-0.1-0.1c0,0,0.1,0,0.1,0
						c0,0,0.2,0,0.2,0c0.1,0,0.2,0.1,0.2,0.1"/>
				</g>
			</g>
			<g id="XMLID_1056_">
				<g id="XMLID_1059_">
					<g id="XMLID_1064_">
						<g id="XMLID_1096_">
							<g id="XMLID_1133_">
								<g id="XMLID_1161_">
									<g id="XMLID_1190_">
										<g id="XMLID_1192_">
											<g id="XMLID_1199_">
												<g id="XMLID_1206_">
													<g id="XMLID_1210_">
														<path id="XMLID_662_" class="st2" d="M9.6,4.1c0,0,0-0.1,0-0.1c0,0,0,0,0,0c0,0,0,0,0,0c0,0-0.1,0-0.1,0c0,0,0,0,0,0
															c0,0,0,0,0,0c0,0,0,0,0,0.1c0,0,0,0,0,0.1c0,0,0,0,0,0C9.5,4.1,9.5,4.1,9.6,4.1C9.5,4.1,9.5,4.1,9.6,4.1
															C9.6,4.1,9.6,4.1,9.6,4.1"/>
														<path id="XMLID_661_" class="st2" d="M9.8,4c0,0,0-0.1,0-0.1c0,0,0,0,0,0c0,0,0,0,0,0c0,0,0,0,0,0c0,0,0,0,0,0
															c0,0,0,0-0.1,0c0,0,0,0,0,0c0,0,0,0,0,0c0,0,0,0,0,0c0,0,0,0,0,0c0,0,0,0,0,0C9.6,3.9,9.7,4,9.8,4C9.7,4,9.7,4,9.8,4
															C9.7,4,9.8,4,9.8,4"/>
														<path id="XMLID_660_" class="st2" d="M10.1,4.6C10.1,4.6,10.1,4.6,10.1,4.6C10,4.6,10,4.6,10.1,4.6
															C10,4.6,10,4.5,10,4.5s0,0,0,0c0,0,0,0-0.1,0c0,0,0,0,0,0c0,0,0,0,0,0c0,0,0,0,0,0c0,0,0,0,0,0s0-0.1,0-0.1
															c0,0,0,0,0,0c0,0,0,0-0.1,0c0,0,0,0,0,0c0,0,0,0,0,0c0,0,0,0-0.1,0c0,0-0.1,0-0.1,0c0,0,0,0-0.1,0c0,0-0.1,0-0.1,0
															c0,0-0.1-0.1-0.1-0.1c0,0,0,0,0,0c0,0,0,0,0,0c0,0,0,0,0.1,0c0,0,0,0,0.1,0c0,0,0,0,0.1,0c0,0,0,0,0,0c0,0,0,0,0.1,0
															c0,0,0.1,0,0.1,0c0,0,0,0,0,0c0,0,0,0,0-0.1c0,0,0-0.1,0-0.1c0,0,0-0.1,0-0.1c0,0,0,0,0.1,0.1c0,0,0,0.1,0.1,0.1
															c0,0.1,0,0.1,0,0.2c0,0,0,0.1,0,0.1c0,0,0,0.1,0,0.1s0,0.1,0,0.1c0,0,0,0,0-0.1c0,0,0,0,0,0c0,0,0,0,0,0
															c0,0,0,0.1,0,0.1s0,0,0,0C10.1,4.5,10.1,4.5,10.1,4.6C10.1,4.6,10.1,4.6,10.1,4.6C10.1,4.6,10.1,4.6,10.1,4.6
															C10.1,4.6,10.1,4.6,10.1,4.6"/>
														<path id="XMLID_659_" class="st2" d="M9.9,4.3C9.9,4.3,9.9,4.3,9.9,4.3c-0.1,0-0.1-0.1-0.1-0.1c0,0-0.1-0.1-0.1-0.1
															c0,0-0.1-0.1-0.1-0.2c0,0,0,0,0-0.1c0,0,0,0,0-0.1c0,0,0,0,0,0.1c0,0,0.1,0,0.1,0.1c0,0,0.1,0,0.1,0.1
															c0,0,0.1,0.1,0.1,0.1c0,0,0,0.1,0,0.1C9.9,4.3,9.9,4.3,9.9,4.3"/>
													</g>
													<path id="XMLID_658_" class="st2" d="M10.3,5.5C10.3,5.5,10.3,5.5,10.3,5.5c0-0.1,0-0.1-0.1-0.2c0,0,0,0,0,0
														c0,0,0,0,0,0c0,0,0.1,0,0.1,0c0,0,0,0,0,0c0,0,0,0,0,0c0,0,0-0.1,0-0.1c0,0,0,0,0-0.1c0,0,0,0,0-0.1c0,0,0,0,0,0
														c0,0,0,0,0,0c0,0,0,0-0.1,0c0,0-0.1,0-0.1,0c0,0,0,0,0,0C10,5,10,5,9.9,4.9c0-0.1-0.1-0.1-0.1-0.2c0,0,0.1,0,0.1,0
														c0,0,0,0,0.1,0c0,0,0,0,0.1,0c0,0,0.1,0,0.1,0c0,0,0,0,0,0c0,0,0,0,0-0.1c0,0,0-0.1,0-0.1c0,0,0-0.1,0-0.1
														c0,0,0-0.1,0-0.1c0,0,0-0.1,0-0.1c0,0,0,0.1,0,0.1c0,0,0,0.1,0,0.1c0,0.1,0,0.2,0,0.2c0,0.1,0,0.2-0.1,0.2
														c0,0,0,0.1,0,0.1c0,0,0,0,0,0c0,0,0,0,0,0c0,0,0,0.1,0,0.1c0,0,0-0.1,0-0.1c0,0,0,0,0,0c0,0,0,0,0,0c0,0,0,0,0,0
														c0,0,0,0,0,0c0,0,0,0,0,0.1c0,0,0,0,0,0c0,0,0,0,0,0C10.4,5.5,10.4,5.5,10.3,5.5C10.4,5.6,10.4,5.6,10.3,5.5
														C10.4,5.6,10.4,5.6,10.3,5.5"/>
													<path id="XMLID_657_" class="st2" d="M10.2,5c0,0-0.1-0.1-0.1-0.1c0,0-0.1-0.1-0.1-0.1c0,0,0-0.1-0.1-0.1
														c0,0,0-0.1,0-0.1c0,0,0-0.1,0-0.1c0,0,0.1,0,0.1,0.1c0,0,0.1,0,0.1,0.1c0,0,0,0.1,0,0.1c0,0,0,0.1,0,0.1"/>
													<path id="XMLID_656_" class="st2" d="M10.2,5C10.2,5,10.2,5,10.2,5C10.2,5,10.2,5,10.2,5c0-0.1-0.1-0.2-0.1-0.2
														c0,0,0-0.1-0.1-0.1c0,0,0-0.1,0-0.1c0,0,0-0.1,0-0.1c0,0,0.1,0.1,0.1,0.1c0,0,0,0.1,0.1,0.1c0,0.1,0.1,0.2,0.1,0.3
														C10.3,5,10.3,5,10.2,5"/>
												</g>
												<path id="XMLID_655_" class="st2" d="M10.1,6.8C10.1,6.8,10.1,6.7,10.1,6.8c0.1-0.1,0.1-0.1,0.1-0.2c0,0,0,0,0,0
													s0,0,0,0c0,0,0-0.1,0-0.1c0,0,0,0,0,0c0,0,0,0.1,0,0.1c0,0,0.1-0.2,0.1-0.2c0,0,0-0.1,0-0.1s0,0,0,0c0,0,0,0-0.1-0.1
													C10.1,6.1,10.1,6,10,6c0,0-0.1-0.2-0.1-0.2c0,0,0-0.1-0.1-0.1c0,0,0.1,0,0.1,0c0,0,0.1,0,0.1,0c0,0,0,0,0,0c0,0,0,0,0,0
													c0,0,0,0.1,0.1,0.1c0,0,0,0.1,0.1,0.1c0,0,0,0,0.1,0c0,0,0.1,0,0.1,0c0,0,0,0,0,0c0,0,0,0,0,0c0,0,0,0,0,0
													c0,0,0,0,0-0.1c0,0,0-0.1,0.1-0.1c0,0,0-0.1,0-0.1c0,0,0,0,0-0.1c0,0,0.1-0.1,0.1-0.1c0,0,0,0.1,0,0.1c0,0,0,0.1,0,0.1
													c0,0.1-0.1,0.2-0.1,0.2c0,0-0.1,0.1-0.1,0.1c0,0-0.1,0.1-0.1,0.1c0,0,0,0,0,0.1c0,0,0,0.1,0,0.1c0,0,0,0.1,0,0.1
													s0.1,0,0.1,0c0,0,0,0,0,0c0,0,0,0,0,0c0,0,0,0,0,0c0,0,0,0,0,0s0,0,0,0c0,0,0,0,0,0C10.2,6.8,10.2,6.8,10.1,6.8"/>
												<path id="XMLID_654_" class="st2" d="M10.1,5.7c0-0.1,0-0.1,0-0.2c0,0,0,0,0-0.1c0,0,0,0,0-0.1c0,0,0,0,0,0
													c0,0,0,0,0.1,0.1c0,0.1,0.1,0.1,0.1,0.2"/>
												<path id="XMLID_653_" class="st2" d="M10.4,5.6C10.4,5.6,10.4,5.6,10.4,5.6c0-0.1,0-0.1,0.1-0.1c0,0,0,0,0.1-0.1
													c0,0,0,0,0-0.1c0,0,0,0,0,0c0,0,0,0,0,0.1c0,0,0,0.1,0,0.2c0,0,0,0.1,0,0.1c0,0,0,0,0,0c0,0,0,0,0,0"/>
												<path id="XMLID_652_" class="st2" d="M10.3,6.1C10.3,6.1,10.3,6.1,10.3,6.1c0,0-0.1-0.1-0.2-0.2c0,0,0-0.2,0-0.2
													c0-0.1,0-0.1,0-0.2c0,0,0,0.1,0.1,0.1c0,0,0.1,0.1,0.1,0.1c0,0,0,0,0,0.1c0,0,0,0,0,0.1c0,0,0,0.1,0,0.2
													C10.3,6,10.3,6,10.3,6.1"/>
												<path id="XMLID_651_" class="st2" d="M10.4,6C10.4,6,10.4,6,10.4,6C10.4,5.9,10.4,5.9,10.4,6c0-0.1,0-0.2,0-0.2
													c0-0.1,0.1-0.1,0.1-0.2c0,0,0.1-0.1,0.1-0.1c0,0.1,0,0.1,0,0.2c0,0,0,0.2,0,0.2c0,0.1,0,0.1-0.1,0.2c0,0,0,0.1-0.1,0.1
													c0,0-0.1,0.1-0.1,0.1c0,0,0,0,0,0"/>
												<path id="XMLID_650_" class="st2" d="M10.3,6.2c0-0.1,0-0.1,0-0.2c0-0.1,0-0.1,0-0.2c0-0.1,0-0.2,0.1-0.2
													c0,0,0-0.1,0-0.1c0.1,0,0.1,0.1,0.1,0.2c0,0.1,0,0.2,0,0.2C10.5,6,10.4,6.1,10.3,6.2"/>
											</g>
											<path id="XMLID_649_" class="st2" d="M9.9,6.9C10,6.8,10,6.8,9.9,6.9c0-0.1,0-0.1,0-0.1c0,0,0,0,0,0c0,0,0,0,0,0
												c0,0,0,0,0,0c0,0,0.1,0,0.1-0.1c0,0,0,0.1,0,0.1c0,0,0,0.1,0,0.1C10.1,6.8,10,6.8,9.9,6.9C10,6.8,10,6.8,9.9,6.9
												C10,6.9,9.9,6.9,9.9,6.9"/>
											<path id="XMLID_648_" class="st2" d="M10.1,7C10.1,7,10.1,6.9,10.1,7C10.1,6.9,10.1,6.9,10.1,7c0-0.1,0-0.2,0.1-0.2
												c0,0,0.1,0,0.1-0.1c0,0,0,0.1,0,0.1c0,0,0,0,0,0.1c0,0,0,0,0,0.1c0,0,0,0,0,0c0,0,0,0,0,0C10.1,7,10.1,7,10.1,7"/>
											<path id="XMLID_647_" class="st2" d="M9.6,7.3C9.6,7.3,9.6,7.3,9.6,7.3c0,0,0-0.2,0-0.3c0-0.1,0.1-0.2,0.1-0.2
												c0,0,0.1-0.1,0.1-0.2c0,0,0,0,0-0.1c0,0,0-0.1,0-0.1s0,0.1,0,0.1c0,0,0,0.1,0,0.1c0,0,0,0,0,0.1c0,0,0,0,0,0
												c0,0-0.1,0.1-0.1,0.1c0,0.1-0.1,0.1-0.1,0.2C9.7,7.2,9.7,7.3,9.6,7.3"/>
											<path id="XMLID_646_" class="st2" d="M9.7,7.4C9.7,7.4,9.7,7.4,9.7,7.4c0.1,0,0.2,0,0.2,0c0.1,0,0.1,0,0.2-0.1
												c0,0,0.2-0.1,0.2-0.2c0,0,0.1-0.1,0.1-0.1c0,0-0.1,0-0.1,0c0,0,0,0-0.1,0c0,0,0,0,0,0c0,0-0.1,0.1-0.1,0.1
												c0,0-0.1,0.1-0.1,0.1c-0.1,0-0.1,0-0.2,0.1C9.7,7.4,9.7,7.4,9.7,7.4"/>
											<path id="XMLID_645_" class="st2" d="M10,7c0,0,0.1-0.1,0.2-0.1c0.1,0,0.2-0.1,0.2-0.1s0,0.1,0,0.1
												c-0.1,0.1-0.2,0.2-0.2,0.2C10,7.3,9.9,7.3,9.8,7.3c0,0-0.1,0-0.1,0"/>
											<path id="XMLID_644_" class="st2" d="M9.6,7.3c0,0,0-0.1,0-0.1c0,0,0.1-0.2,0.1-0.2c0,0,0.1-0.1,0.1-0.1
												c0,0,0.1-0.1,0.2-0.1c0,0,0.1-0.1,0.1-0.1s0,0.1,0,0.1c0,0,0,0.1,0,0.1c0,0.1-0.1,0.2-0.2,0.3C9.8,7.3,9.7,7.3,9.6,7.3"
												/>
										</g>
										<path id="XMLID_643_" class="st2" d="M9.1,7.6c0,0,0.2-0.1,0.3-0.1c0,0,0.1-0.1,0.1-0.1c0,0,0,0,0,0c0,0,0-0.1,0.1,0
											c0,0,0,0,0.1,0.1c0,0,0,0,0,0.1c0,0,0,0-0.1,0c0,0,0,0-0.1,0c0,0-0.1,0.1-0.2,0.1C9.2,7.6,9.1,7.7,9.1,7.6"/>
									</g>
									<path id="XMLID_642_" class="st5" d="M9.5,4C9.5,4,9.5,4,9.5,4C9.5,4,9.6,4,9.6,4.1"/>
									<path id="XMLID_641_" class="st5" d="M9.5,4C9.5,4,9.5,4,9.5,4"/>
									<path id="XMLID_640_" class="st5" d="M9.5,4C9.6,4,9.6,4,9.5,4"/>
									<path id="XMLID_639_" class="st5" d="M9.7,3.9c0,0,0.1,0.1,0.1,0.1"/>
									<path id="XMLID_638_" class="st5" d="M9.7,3.9C9.7,3.9,9.7,3.9,9.7,3.9C9.7,4,9.7,4,9.7,3.9"/>
									<path id="XMLID_637_" class="st5" d="M9.7,3.9C9.7,3.9,9.7,3.9,9.7,3.9C9.7,3.9,9.7,3.9,9.7,3.9"/>
									<path id="XMLID_636_" class="st5" d="M9.8,3.9C9.8,4,9.8,4,9.8,3.9c0,0.1,0.1,0.1,0.1,0.2c0,0,0.1,0.2,0.1,0.2"/>
									<path id="XMLID_635_" class="st5" d="M9.8,4C9.8,4,9.8,4.1,9.8,4"/>
									<path id="XMLID_634_" class="st5" d="M9.9,4c0,0,0,0.1,0,0.1"/>
									<path id="XMLID_633_" class="st5" d="M9.9,4.1c0,0,0,0.1,0,0.1"/>
									<path id="XMLID_632_" class="st5" d="M9.9,4.2C9.9,4.2,9.9,4.2,9.9,4.2"/>
									<path id="XMLID_631_" class="st5" d="M9.9,4.1C9.9,4.1,9.9,4.2,9.9,4.1"/>
									<path id="XMLID_630_" class="st5" d="M9.6,4c0,0.1,0.1,0.1,0.1,0.2c0,0.1,0.1,0.1,0.1,0.2"/>
									<path id="XMLID_629_" class="st5" d="M9.6,4C9.7,4.1,9.7,4.1,9.6,4"/>
									<path id="XMLID_628_" class="st5" d="M9.7,4C9.7,4,9.7,4,9.7,4"/>
									<path id="XMLID_627_" class="st5" d="M9.7,4.1C9.7,4.1,9.7,4.1,9.7,4.1C9.7,4.1,9.7,4.1,9.7,4.1"/>
									<path id="XMLID_626_" class="st5" d="M9.7,4.1C9.7,4.1,9.7,4.1,9.7,4.1C9.7,4.1,9.7,4.1,9.7,4.1"/>
									<path id="XMLID_625_" class="st5" d="M9.7,4.2C9.7,4.2,9.8,4.2,9.7,4.2"/>
									<path id="XMLID_624_" class="st5" d="M9.8,4.1C9.8,4.1,9.8,4.2,9.8,4.1"/>
									<path id="XMLID_623_" class="st5" d="M9.8,4.2C9.8,4.2,9.8,4.3,9.8,4.2"/>
									<path id="XMLID_622_" class="st5" d="M9.8,4.2C9.8,4.2,9.8,4.2,9.8,4.2"/>
									<path id="XMLID_621_" class="st5" d="M9.5,4.1C9.5,4.1,9.5,4.2,9.5,4.1C9.6,4.2,9.6,4.2,9.5,4.1c0.1,0.1,0.1,0.1,0.1,0.1
										c0,0,0,0,0.1,0c0,0,0.1,0,0.1,0"/>
									<path id="XMLID_620_" class="st5" d="M9.6,4.1C9.6,4.1,9.6,4.2,9.6,4.1"/>
									<path id="XMLID_619_" class="st5" d="M9.6,4.2C9.6,4.2,9.6,4.2,9.6,4.2"/>
									<path id="XMLID_618_" class="st5" d="M9.6,4.2C9.6,4.3,9.7,4.3,9.6,4.2"/>
									<path id="XMLID_617_" class="st5" d="M9.7,4.3C9.7,4.3,9.7,4.3,9.7,4.3"/>
									<path id="XMLID_616_" class="st5" d="M9.7,4.3C9.8,4.3,9.8,4.3,9.7,4.3"/>
									<path id="XMLID_615_" class="st5" d="M9.7,4.2C9.7,4.2,9.7,4.2,9.7,4.2"/>
								</g>
								<path id="XMLID_614_" class="st5" d="M10.3,4.5c0,0.1,0,0.1,0,0.2c0,0,0,0.1,0,0.1c0,0,0,0.1,0,0.1"/>
								<path id="XMLID_613_" class="st5" d="M10.3,4.6C10.3,4.6,10.3,4.6,10.3,4.6c0,0.1,0,0.1,0,0.1"/>
								<path id="XMLID_612_" class="st5" d="M10.4,4.6c0,0,0,0.1,0,0.1"/>
								<path id="XMLID_611_" class="st5" d="M10.4,4.7C10.4,4.7,10.4,4.7,10.4,4.7c0,0.1,0,0.1,0,0.1c0,0,0,0,0,0"/>
								<path id="XMLID_610_" class="st5" d="M10.3,4.7c0,0,0,0.1,0,0.1"/>
								<path id="XMLID_609_" class="st5" d="M10.4,4.8C10.4,4.8,10.4,4.8,10.4,4.8C10.4,4.9,10.4,4.9,10.4,4.8c0,0.1,0,0.1-0.1,0.2
									"/>
								<path id="XMLID_608_" class="st5" d="M10.1,4.6c0,0,0,0.1,0,0.1c0,0,0,0.1,0,0.1c0,0.1,0,0.1,0,0.2c0,0,0,0,0,0.1
									c0,0,0,0,0,0"/>
								<path id="XMLID_607_" class="st5" d="M10.2,4.6c0,0,0,0.1,0,0.1"/>
								<path id="XMLID_606_" class="st5" d="M10.1,4.6C10.1,4.7,10.2,4.7,10.1,4.6"/>
								<path id="XMLID_605_" class="st5" d="M10.1,4.7C10.2,4.7,10.2,4.8,10.1,4.7C10.2,4.8,10.2,4.8,10.1,4.7"/>
								<path id="XMLID_604_" class="st5" d="M10.2,4.7C10.2,4.7,10.2,4.8,10.2,4.7c0,0.1,0,0.1,0,0.1"/>
								<path id="XMLID_603_" class="st5" d="M10.2,4.8C10.2,4.8,10.2,4.8,10.2,4.8C10.2,4.8,10.2,4.9,10.2,4.8
									C10.2,4.9,10.2,4.9,10.2,4.8"/>
								<path id="XMLID_602_" class="st5" d="M10.3,4.8C10.3,4.8,10.3,4.9,10.3,4.8c0,0.1,0,0.1,0,0.1"/>
								<path id="XMLID_601_" class="st5" d="M10.2,4.9C10.2,4.9,10.2,5,10.2,4.9"/>
								<path id="XMLID_600_" class="st5" d="M10,4.6C10,4.7,10,4.7,10,4.6c0.1,0.1,0.1,0.1,0.1,0.1c0,0.1,0.1,0.1,0.1,0.1"/>
								<path id="XMLID_599_" class="st5" d="M10.1,4.7C10.1,4.7,10.1,4.7,10.1,4.7"/>
								<path id="XMLID_598_" class="st5" d="M10,4.7C10,4.7,10,4.8,10,4.7"/>
								<path id="XMLID_597_" class="st5" d="M10.1,4.8C10.1,4.8,10.1,4.9,10.1,4.8"/>
								<path id="XMLID_596_" class="st5" d="M10.1,4.9c0,0,0.1,0.1,0.1,0.1"/>
								<path id="XMLID_595_" class="st5" d="M9.9,4.8c0,0.1,0.1,0.1,0.2,0.2c0,0,0.1,0,0.1,0c0,0,0.1,0,0.1,0"/>
								<path id="XMLID_594_" class="st5" d="M10.1,5c0,0,0.1,0,0.1,0"/>
								<path id="XMLID_593_" class="st5" d="M10.1,4.9C10.1,5,10.1,5,10.1,4.9"/>
								<path id="XMLID_592_" class="st5" d="M10,5C10,5,10,5,10,5c0.1,0,0.1,0,0.1,0"/>
								<path id="XMLID_591_" class="st5" d="M10,4.9C10,4.9,10,4.9,10,4.9"/>
								<path id="XMLID_590_" class="st5" d="M10,4.9C10,4.9,10,4.9,10,4.9C10,4.9,10,4.9,10,4.9"/>
								<path id="XMLID_589_" class="st5" d="M9.9,4.9C9.9,4.9,9.9,4.9,9.9,4.9"/>
								<path id="XMLID_588_" class="st5" d="M9.9,4.8C9.9,4.8,9.9,4.8,9.9,4.8"/>
							</g>
							<path id="XMLID_587_" class="st5" d="M10,5.8C10,5.8,10.1,5.8,10,5.8c0.1,0.1,0.1,0.1,0.1,0.1"/>
							<path id="XMLID_586_" class="st5" d="M10.2,6.1C10.2,6.1,10.2,6.1,10.2,6.1c0.1,0,0.1,0,0.1,0"/>
							<path id="XMLID_585_" class="st5" d="M10.1,6c0,0,0.1,0.1,0.1,0.1"/>
							<path id="XMLID_584_" class="st5" d="M10,5.9C10,5.9,10.1,5.9,10,5.9C10.1,5.9,10.1,5.9,10,5.9"/>
							<path id="XMLID_583_" class="st5" d="M10,5.8C10,5.8,10,5.9,10,5.8"/>
							<path id="XMLID_582_" class="st5" d="M10.1,5.8C10.1,5.8,10.1,5.8,10.1,5.8C10.1,5.8,10.1,5.9,10.1,5.8"/>
							<path id="XMLID_581_" class="st5" d="M10.1,5.7C10.1,5.7,10.1,5.7,10.1,5.7C10.1,5.7,10.1,5.7,10.1,5.7
								c0,0.1,0.1,0.2,0.1,0.2c0,0,0,0.1,0,0.1c0,0,0,0.1,0,0.1"/>
							<path id="XMLID_580_" class="st5" d="M10.2,5.9C10.2,6,10.2,6,10.2,5.9C10.2,6,10.2,6,10.2,5.9c0.1,0.1,0.1,0.1,0.1,0.1"/>
							<path id="XMLID_579_" class="st5" d="M10.2,5.8C10.2,5.9,10.2,5.9,10.2,5.8C10.2,5.9,10.2,5.9,10.2,5.8"/>
							<path id="XMLID_578_" class="st5" d="M10.1,5.7C10.1,5.7,10.1,5.8,10.1,5.7C10.2,5.8,10.2,5.8,10.1,5.7"/>
							<path id="XMLID_577_" class="st5" d="M10.2,5.7C10.2,5.7,10.2,5.7,10.2,5.7c0,0.1,0,0.1,0,0.1c0,0,0,0,0,0"/>
							<path id="XMLID_576_" class="st5" d="M10.2,5.8C10.2,5.8,10.2,5.8,10.2,5.8c0,0.1,0,0.1,0,0.1c0,0,0,0,0,0.1"/>
							<path id="XMLID_575_" class="st5" d="M10.2,5.5c0,0,0,0.1,0,0.1c0,0,0,0.1,0,0.1"/>
							<path id="XMLID_574_" class="st5" d="M10.3,5.6C10.3,5.6,10.3,5.6,10.3,5.6C10.3,5.7,10.3,5.7,10.3,5.6"/>
							<path id="XMLID_573_" class="st5" d="M10.2,5.6C10.2,5.6,10.2,5.6,10.2,5.6"/>
							<path id="XMLID_572_" class="st5" d="M10.4,5.6c0,0.1,0,0.2,0,0.2c0,0.1,0,0.2,0,0.3c0,0,0,0.1,0,0.1"/>
							<path id="XMLID_571_" class="st5" d="M10.3,5.6C10.3,5.7,10.3,5.7,10.3,5.6c0,0.1,0,0.1,0,0.1"/>
							<path id="XMLID_570_" class="st5" d="M10.4,5.7C10.4,5.7,10.4,5.7,10.4,5.7C10.4,5.7,10.4,5.8,10.4,5.7"/>
							<path id="XMLID_569_" class="st5" d="M10.4,5.8C10.4,5.8,10.4,5.8,10.4,5.8c0,0.1,0,0.1,0,0.1"/>
							<path id="XMLID_568_" class="st5" d="M10.3,5.7c0,0,0,0.1,0.1,0.1"/>
							<path id="XMLID_567_" class="st5" d="M10.3,5.8C10.3,5.9,10.3,5.9,10.3,5.8c0,0.1,0,0.1,0.1,0.1"/>
							<path id="XMLID_566_" class="st5" d="M10.4,5.9C10.4,5.9,10.4,5.9,10.4,5.9C10.4,5.9,10.4,6,10.4,5.9C10.4,6,10.4,6,10.4,6"
								/>
							<path id="XMLID_565_" class="st5" d="M10.3,6c0,0.1,0,0.1,0,0.2"/>
							<path id="XMLID_564_" class="st5" d="M10.4,6C10.4,6,10.4,6,10.4,6c0,0.1,0,0.1-0.1,0.1"/>
							<path id="XMLID_563_" class="st5" d="M10.5,5.5C10.5,5.5,10.5,5.6,10.5,5.5c0,0.1,0,0.1,0,0.1"/>
							<path id="XMLID_562_" class="st5" d="M10.5,5.6C10.4,5.6,10.5,5.6,10.5,5.6c0,0.1,0,0.1,0,0.1"/>
							<path id="XMLID_561_" class="st5" d="M10.6,5.6c0,0,0,0.1,0,0.1c0,0,0,0.1,0,0.1c0,0,0,0.1,0,0.1"/>
							<path id="XMLID_560_" class="st5" d="M10.5,5.6C10.5,5.7,10.5,5.7,10.5,5.6"/>
							<path id="XMLID_559_" class="st5" d="M10.6,5.7c0,0,0,0.1-0.1,0.1"/>
							<path id="XMLID_558_" class="st5" d="M10.5,5.7c0,0,0,0.1,0,0.1"/>
							<path id="XMLID_557_" class="st5" d="M10.5,5.9C10.5,5.9,10.5,5.9,10.5,5.9c0.1-0.1,0.1-0.1,0.1-0.1"/>
							<path id="XMLID_556_" class="st5" d="M10.7,5.8C10.7,5.8,10.6,5.8,10.7,5.8C10.6,5.8,10.6,5.8,10.7,5.8"/>
							<path id="XMLID_555_" class="st5" d="M10.6,5.9c0,0-0.1,0.1-0.1,0.1"/>
							<path id="XMLID_554_" class="st5" d="M10.7,5.8C10.6,5.9,10.6,5.9,10.7,5.8"/>
							<path id="XMLID_553_" class="st5" d="M10.6,6C10.6,6,10.6,6,10.6,6"/>
							<path id="XMLID_552_" class="st5" d="M10.5,6.1C10.5,6.1,10.5,6.1,10.5,6.1"/>
						</g>
						<path id="XMLID_551_" class="st5" d="M9.9,6.7C9.9,6.7,9.9,6.7,9.9,6.7C9.9,6.7,9.9,6.8,9.9,6.7c0,0.1-0.1,0.1-0.1,0.1
							C9.8,6.9,9.7,7,9.7,7c0,0,0,0.1,0,0.1c0,0,0,0.1,0,0.1"/>
						<path id="XMLID_550_" class="st5" d="M9.7,7.1c0,0,0,0.1,0,0.1"/>
						<path id="XMLID_549_" class="st5" d="M9.7,6.9c0,0,0,0.1,0,0.1"/>
						<path id="XMLID_548_" class="st5" d="M9.7,7C9.7,7,9.7,7,9.7,7"/>
						<path id="XMLID_547_" class="st5" d="M9.8,6.8C9.8,6.9,9.8,6.9,9.8,6.8c0,0.1,0,0.1,0,0.1c0,0,0,0,0.1,0"/>
						<path id="XMLID_546_" class="st5" d="M9.8,6.8C9.8,6.8,9.8,6.8,9.8,6.8"/>
						<path id="XMLID_545_" class="st5" d="M9.8,6.8C9.8,6.8,9.9,6.8,9.8,6.8c0.1,0,0.1,0,0.1-0.1"/>
						<path id="XMLID_544_" class="st5" d="M10,6.6C10,6.7,10,6.7,10,6.6C10,6.7,10,6.8,10,6.8"/>
						<path id="XMLID_543_" class="st5" d="M10.1,6.7C10,6.7,10,6.8,10.1,6.7"/>
						<path id="XMLID_542_" class="st5" d="M10.1,6.8C10.1,6.8,10.1,6.8,10.1,6.8C10.1,6.8,10,6.9,10.1,6.8C10,6.9,10,6.9,10,7
							c0,0.1-0.1,0.1-0.1,0.2c0,0-0.1,0.1-0.1,0.2c0,0,0,0,0,0c0,0,0,0,0,0"/>
						<path id="XMLID_541_" class="st5" d="M9.8,7.1C9.8,7.1,9.8,7.2,9.8,7.1c0,0.1-0.1,0.1,0,0.1"/>
						<path id="XMLID_540_" class="st5" d="M9.8,7.2C9.8,7.2,9.8,7.2,9.8,7.2C9.8,7.2,9.8,7.2,9.8,7.2c-0.1,0-0.1,0-0.1,0"/>
						<path id="XMLID_539_" class="st5" d="M9.9,7C9.8,7,9.8,7,9.9,7C9.8,7.1,9.8,7.1,9.8,7.1c0,0,0,0,0,0"/>
						<path id="XMLID_537_" class="st5" d="M10,7.1C9.9,7.1,9.9,7.1,10,7.1C9.9,7.2,9.8,7.2,9.8,7.2"/>
						<path id="XMLID_536_" class="st5" d="M9.9,6.9C9.9,6.9,9.9,7,9.9,6.9c0,0.1,0,0.1,0,0.1"/>
						<path id="XMLID_535_" class="st5" d="M10,7C10,7,10,7,10,7C9.9,7,9.9,7,9.9,7"/>
						<path id="XMLID_534_" class="st5" d="M10,6.9C10,6.9,10,6.9,10,6.9"/>
						<path id="XMLID_533_" class="st5" d="M10.1,6.9C10.1,6.9,10.1,6.9,10.1,6.9C10,6.9,10,6.9,10.1,6.9C10,6.9,10,7,10,7"/>
						<path id="XMLID_532_" class="st5" d="M10.2,6.8C10.2,6.8,10.2,6.8,10.2,6.8C10.2,6.9,10.2,6.9,10.2,6.8
							c-0.1,0.1-0.1,0.1-0.1,0.1"/>
						<path id="XMLID_531_" class="st5" d="M10.1,6.8C10.1,6.9,10.1,6.9,10.1,6.8"/>
						<path id="XMLID_530_" class="st5" d="M10.2,6.9C10.2,6.9,10.2,6.9,10.2,6.9c-0.1,0-0.1,0-0.1,0.1"/>
						<path id="XMLID_529_" class="st5" d="M10.3,7C10.2,7,10.2,7,10.3,7C10.2,7,10.2,7,10.3,7c-0.1,0.1-0.1,0.1-0.2,0.2
							c0,0-0.1,0-0.1,0c0,0-0.1,0-0.1,0.1"/>
						<path id="XMLID_528_" class="st5" d="M10.2,7C10.2,7,10.1,7,10.2,7C10.1,7,10.1,7.1,10.2,7c-0.1,0.1-0.1,0.1-0.1,0.2"/>
						<path id="XMLID_527_" class="st5" d="M10,7.1C10,7.1,10,7.1,10,7.1c0,0.1,0,0.1,0,0.1"/>
						<path id="XMLID_526_" class="st5" d="M10.2,7.1C10.2,7.1,10.2,7.1,10.2,7.1c-0.1,0-0.1,0-0.1,0.1"/>
						<path id="XMLID_525_" class="st5" d="M10.1,7.2C10.1,7.2,10.1,7.2,10.1,7.2c-0.1,0-0.1,0-0.2,0"/>
						<path id="XMLID_524_" class="st5" d="M10,7.2C10,7.3,9.9,7.3,10,7.2c-0.1,0-0.1,0-0.1,0c0,0,0,0-0.1,0"/>
						<path id="XMLID_523_" class="st5" d="M10.3,7.1C10.2,7.1,10.2,7.2,10.3,7.1c-0.1,0.1-0.2,0.1-0.2,0.1"/>
						<path id="XMLID_522_" class="st5" d="M10.2,7.2c0,0-0.1,0-0.1,0"/>
						<path id="XMLID_521_" class="st5" d="M10.1,7.3C10.1,7.3,10,7.3,10.1,7.3c-0.1,0-0.1,0-0.1,0"/>
						<path id="XMLID_520_" class="st5" d="M10,7.3c0,0-0.1,0-0.1,0"/>
					</g>
					<ellipse id="XMLID_519_" class="st4" cx="9.9" cy="4.5" rx="0" ry="0.1"/>
					<ellipse id="XMLID_518_" class="st4" cx="10.1" cy="4.3" rx="0" ry="0.1"/>
					<ellipse id="XMLID_517_" class="st4" cx="10.5" cy="5.2" rx="0" ry="0.1"/>
					<ellipse id="XMLID_516_" class="st4" cx="10.2" cy="5.3" rx="0" ry="0.1"/>
				</g>
				<circle id="XMLID_515_" class="st4" cx="10.1" cy="6.4" r="0.1"/>
				
					<ellipse id="XMLID_514_" transform="matrix(0.9754 0.2204 -0.2204 0.9754 1.7002 -2.1346)" class="st4" cx="10.4" cy="6.6" rx="0" ry="0.1"/>
			</g>
			<ellipse id="XMLID_513_" class="st3" cx="7.8" cy="6.3" rx="0.1" ry="0"/>
			<ellipse id="XMLID_512_" class="st3" cx="8.1" cy="6.2" rx="0" ry="0.1"/>
			<circle id="XMLID_511_" class="st3" cx="7.7" cy="6.4" r="0"/>
			<circle id="XMLID_510_" class="st6" cx="7.9" cy="6.2" r="0.1"/>
			<line id="XMLID_509_" class="st3" x1="9.1" y1="5.9" x2="9.1" y2="5.9"/>
			<g id="XMLID_811_">
				<g id="XMLID_906_">
					<g id="XMLID_1005_">
						<path id="XMLID_508_" class="st2" d="M8.1,3.5C8.1,3.5,8.1,3.5,8.1,3.5C8.1,3.5,8.1,3.5,8.1,3.5C8.2,3.5,8.2,3.5,8.1,3.5
							c0.1,0,0.1,0,0.1,0c0,0,0,0,0,0C8.2,3.5,8.2,3.5,8.1,3.5C8.1,3.5,8.1,3.5,8.1,3.5"/>
						<path id="XMLID_507_" class="st2" d="M8,3.5C8,3.4,8,3.4,8,3.5C8.1,3.4,8.1,3.4,8,3.5c0.1-0.1,0.1-0.1,0.1-0.1c0,0,0,0,0,0
							C8.1,3.4,8,3.5,8,3.5"/>
						<path id="XMLID_506_" class="st2" d="M8.1,3.4C8.1,3.4,8.1,3.4,8.1,3.4C8.1,3.4,8.1,3.4,8.1,3.4C8.1,3.4,8.1,3.4,8.1,3.4
							c0.1-0.1,0.1-0.1,0.2-0.1c0,0,0,0,0,0c0,0,0,0-0.1,0.1C8.2,3.4,8.2,3.5,8.1,3.4C8.1,3.5,8.1,3.5,8.1,3.4
							C8.1,3.5,8.1,3.4,8.1,3.4"/>
						<path id="XMLID_505_" class="st2" d="M8.1,3.5C8.1,3.4,8.1,3.4,8.1,3.5C8.2,3.4,8.2,3.4,8.1,3.5c0.1,0,0.1,0,0.1,0
							c0,0,0,0,0,0c0,0,0,0,0,0C8.3,3.5,8.2,3.5,8.1,3.5C8.2,3.5,8.2,3.5,8.1,3.5"/>
						<path id="XMLID_504_" class="st2" d="M8.2,3.4C8.1,3.4,8.1,3.4,8.2,3.4"/>
						<path id="XMLID_503_" class="st2" d="M8,3.5C8,3.5,8,3.5,8,3.5C8.1,3.5,8.1,3.5,8,3.5c0.1,0,0.1,0,0.1,0
							C8.1,3.5,8.1,3.5,8,3.5C8.1,3.5,8.1,3.5,8,3.5C8,3.5,8,3.5,8,3.5"/>
						<path id="XMLID_502_" class="st2" d="M8,3.5C8,3.5,8,3.5,8,3.5C8,3.5,8,3.5,8,3.5C8.1,3.5,8.1,3.5,8,3.5"/>
						<path id="XMLID_501_" class="st2" d="M7.9,3.4C7.9,3.4,7.9,3.4,7.9,3.4C7.9,3.4,7.9,3.4,7.9,3.4C8,3.4,8,3.4,7.9,3.4
							C8,3.4,8,3.4,7.9,3.4c0.1,0,0.1,0,0.1,0C8,3.4,8,3.4,7.9,3.4C8,3.5,8,3.5,7.9,3.4"/>
						<path id="XMLID_500_" class="st2" d="M7.9,3.5C7.9,3.5,8,3.5,7.9,3.5C8,3.5,8,3.5,7.9,3.5c0.1,0,0.1,0,0.1,0c0,0,0,0,0,0
							C8,3.5,8,3.5,7.9,3.5C8,3.5,8,3.5,7.9,3.5C7.9,3.5,7.9,3.5,7.9,3.5C7.9,3.5,7.9,3.5,7.9,3.5C7.9,3.5,7.9,3.5,7.9,3.5"/>
						<path id="XMLID_499_" class="st2" d="M8,3.5C8,3.5,8,3.5,8,3.5"/>
						<path id="XMLID_498_" class="st2" d="M7.9,3.6C7.9,3.5,8,3.5,7.9,3.6C8,3.5,8,3.5,8,3.5c0,0,0,0,0,0c0,0,0,0,0,0
							C8,3.6,8,3.6,7.9,3.6C8,3.6,7.9,3.6,7.9,3.6"/>
						<path id="XMLID_497_" class="st2" d="M8,3.6C8,3.6,8,3.6,8,3.6"/>
						<path id="XMLID_496_" class="st2" d="M7.9,3.5C7.9,3.5,7.8,3.5,7.9,3.5C7.8,3.5,7.8,3.5,7.9,3.5C7.9,3.5,7.9,3.5,7.9,3.5
							C7.9,3.5,7.9,3.4,7.9,3.5C7.9,3.4,7.9,3.4,7.9,3.5C7.9,3.4,7.9,3.4,7.9,3.5C7.9,3.4,7.9,3.5,7.9,3.5C7.9,3.5,7.9,3.5,7.9,3.5
							C7.9,3.5,7.9,3.5,7.9,3.5z"/>
						<path id="XMLID_495_" class="st2" d="M7.8,3.5C7.9,3.5,7.9,3.5,7.8,3.5C7.9,3.5,7.9,3.5,7.8,3.5C7.9,3.5,7.9,3.5,7.8,3.5
							C7.9,3.5,7.9,3.5,7.8,3.5C7.9,3.5,7.9,3.5,7.8,3.5C7.9,3.5,7.9,3.5,7.8,3.5C7.9,3.6,7.9,3.6,7.8,3.5C7.9,3.6,7.9,3.6,7.8,3.5
							C7.8,3.6,7.8,3.6,7.8,3.5C7.8,3.6,7.8,3.6,7.8,3.5C7.8,3.6,7.9,3.6,7.8,3.5"/>
						<path id="XMLID_494_" class="st2" d="M7.9,3.5C7.9,3.5,7.9,3.5,7.9,3.5C7.9,3.5,7.9,3.6,7.9,3.5"/>
						<path id="XMLID_493_" class="st2" d="M7.9,3.7C7.9,3.7,7.9,3.7,7.9,3.7C7.8,3.7,7.8,3.7,7.9,3.7C7.8,3.7,7.8,3.7,7.9,3.7
							C7.9,3.6,7.9,3.6,7.9,3.7C7.9,3.6,7.9,3.6,7.9,3.7C7.9,3.6,7.9,3.6,7.9,3.7C8,3.6,8,3.6,7.9,3.7C8,3.6,8,3.6,7.9,3.7
							C7.9,3.6,7.9,3.7,7.9,3.7z"/>
						<path id="XMLID_492_" class="st2" d="M7.9,3.6C7.9,3.6,7.9,3.7,7.9,3.6C7.9,3.7,7.9,3.7,7.9,3.6"/>
						<path id="XMLID_491_" class="st2" d="M7.8,3.7C7.8,3.7,7.8,3.7,7.8,3.7C7.8,3.7,7.8,3.6,7.8,3.7c0-0.1,0-0.1,0-0.1
							c0,0,0,0,0,0c0,0,0,0,0-0.1c0,0,0,0,0,0c0,0,0,0,0,0c0,0,0,0,0,0c0,0,0,0,0,0c0,0,0,0,0,0C7.8,3.6,7.8,3.6,7.8,3.7
							C7.8,3.7,7.8,3.7,7.8,3.7"/>
						<path id="XMLID_490_" class="st2" d="M7.8,3.5C7.8,3.6,7.8,3.6,7.8,3.5"/>
						<path id="XMLID_489_" class="st2" d="M7.8,3.7C7.8,3.7,7.8,3.7,7.8,3.7C7.8,3.7,7.8,3.7,7.8,3.7c0-0.1,0-0.1,0-0.1
							c0,0,0,0,0,0C7.8,3.6,7.9,3.6,7.8,3.7C7.9,3.7,7.9,3.7,7.8,3.7C7.9,3.7,7.9,3.7,7.8,3.7C7.8,3.7,7.8,3.7,7.8,3.7
							C7.8,3.8,7.8,3.8,7.8,3.7C7.8,3.8,7.8,3.8,7.8,3.7C7.8,3.7,7.8,3.7,7.8,3.7"/>
						<path id="XMLID_488_" class="st2" d="M7.8,3.7C7.8,3.7,7.8,3.7,7.8,3.7"/>
						<path id="XMLID_487_" class="st2" d="M7.8,3.8C7.8,3.8,7.8,3.8,7.8,3.8C7.8,3.8,7.8,3.8,7.8,3.8C7.9,3.7,7.9,3.7,7.8,3.8
							c0-0.1,0.1-0.1,0.1-0.1C7.9,3.7,7.9,3.7,7.8,3.8C7.9,3.8,7.9,3.8,7.8,3.8C7.9,3.8,7.9,3.8,7.8,3.8C7.9,3.8,7.8,3.8,7.8,3.8"/>
						<path id="XMLID_486_" class="st2" d="M7.9,3.8C7.9,3.8,7.8,3.8,7.9,3.8"/>
						<path id="XMLID_485_" class="st2" d="M7.7,3.8C7.7,3.8,7.7,3.8,7.7,3.8c0-0.1,0-0.1,0-0.1c0,0,0,0,0-0.1c0,0,0,0,0,0
							c0,0,0,0,0,0c0,0,0,0,0,0c0,0,0,0,0,0C7.7,3.7,7.7,3.7,7.7,3.8C7.7,3.8,7.7,3.8,7.7,3.8C7.7,3.8,7.7,3.8,7.7,3.8
							C7.7,3.8,7.7,3.8,7.7,3.8"/>
						<path id="XMLID_484_" class="st2" d="M7.7,3.7C7.7,3.7,7.7,3.7,7.7,3.7C7.7,3.8,7.7,3.8,7.7,3.7"/>
						<path id="XMLID_483_" class="st2" d="M7.8,3.8C7.8,3.8,7.8,3.8,7.8,3.8C7.8,3.8,7.7,3.8,7.8,3.8C7.7,3.8,7.7,3.8,7.8,3.8
							c0-0.1,0-0.1,0-0.1c0,0,0,0,0,0c0,0,0,0,0,0C7.8,3.8,7.8,3.8,7.8,3.8C7.8,3.8,7.8,3.8,7.8,3.8C7.8,3.9,7.8,3.9,7.8,3.8
							C7.8,3.9,7.8,3.9,7.8,3.8C7.8,3.9,7.8,3.9,7.8,3.8C7.8,3.9,7.8,3.8,7.8,3.8C7.8,3.8,7.8,3.8,7.8,3.8"/>
						<path id="XMLID_482_" class="st2" d="M7.8,3.8C7.8,3.8,7.8,3.8,7.8,3.8C7.8,3.8,7.8,3.8,7.8,3.8"/>
						<path id="XMLID_481_" class="st2" d="M7.9,4C7.9,4,7.9,3.9,7.9,4C7.9,3.9,7.9,3.9,7.9,4C7.8,3.9,7.8,3.9,7.9,4
							c-0.1-0.1-0.1-0.1,0-0.1c0,0,0,0,0,0c0,0,0,0,0,0c0,0,0,0,0,0c0,0,0,0,0,0C7.9,3.9,7.9,3.9,7.9,4C7.9,3.9,7.9,3.9,7.9,4
							C7.9,4,7.9,4,7.9,4"/>
						<path id="XMLID_480_" class="st2" d="M7.9,3.9C7.9,3.9,7.9,3.9,7.9,3.9C7.9,3.9,7.9,3.9,7.9,3.9C7.9,4,7.9,4,7.9,3.9"/>
						<path id="XMLID_479_" class="st2" d="M7.8,4C7.8,3.9,7.8,3.9,7.8,4C7.7,3.9,7.7,3.9,7.8,4C7.7,3.8,7.7,3.8,7.7,3.8
							c0,0,0,0,0,0c0,0,0,0,0,0c0,0,0,0,0,0c0,0,0,0,0,0C7.8,3.9,7.8,3.9,7.8,4"/>
						<path id="XMLID_478_" class="st2" d="M7.9,4C7.9,4,7.9,4,7.9,4C7.9,4,7.8,4,7.9,4C7.8,4,7.8,3.9,7.8,3.9c0,0,0,0,0-0.1
							c0,0,0,0,0,0c0,0,0,0,0,0c0,0,0,0,0,0c0,0,0,0,0,0C7.9,3.9,7.9,3.9,7.9,4C7.9,3.9,7.9,3.9,7.9,4C7.9,4,7.9,4,7.9,4
							C7.9,4,7.9,4,7.9,4"/>
						<path id="XMLID_477_" class="st2" d="M7.8,3.9C7.8,3.9,7.9,4,7.8,3.9C7.9,4,7.9,4,7.8,3.9"/>
						<path id="XMLID_476_" class="st2" d="M7.9,4.1C7.9,4.1,7.9,4.1,7.9,4.1C7.9,4.1,7.8,4.1,7.9,4.1C7.8,4,7.8,4,7.8,4
							c0,0,0,0,0-0.1c0,0,0,0,0,0c0,0,0,0,0,0c0,0,0,0,0,0C7.8,4,7.8,4,7.9,4.1C7.9,4,7.9,4,7.9,4.1"/>
						<path id="XMLID_475_" class="st2" d="M7.8,4C7.8,4,7.8,4,7.8,4C7.9,4.1,7.9,4.1,7.8,4"/>
						<path id="XMLID_474_" class="st2" d="M8,4.1C8,4.1,8,4.1,8,4.1C8,4.1,8,4,8,4.1C8,4,8,4,8,4.1C8,4,8,4,7.9,4c0,0,0,0,0-0.1
							c0,0,0,0,0,0c0,0,0,0,0,0c0,0,0,0,0,0C8,4,8,4,8,4.1C8.1,4,8.1,4,8,4.1C8.1,4.1,8.1,4.1,8,4.1C8.1,4.1,8.1,4.1,8,4.1"/>
						<path id="XMLID_473_" class="st2" d="M8,4.1C8,4.1,8,4.1,8,4.1C7.9,4.1,7.9,4.1,8,4.1C7.9,4.1,7.9,4.1,8,4.1
							c-0.1,0-0.1-0.1-0.1-0.1C7.8,4.1,7.9,4.1,8,4.1C7.9,4.1,7.9,4.1,8,4.1C7.9,4.1,8,4.1,8,4.1C8,4.1,8,4.1,8,4.1
							C8,4.1,8,4.1,8,4.1"/>
						<path id="XMLID_472_" class="st2" d="M8.1,4.1C8,4.1,8,4.1,8.1,4.1C8,4.1,8,4.1,8.1,4.1c-0.1,0-0.1,0-0.1,0c0,0,0,0,0,0
							c0,0,0-0.1,0-0.1c0,0,0,0,0,0C8,4,8,4,8.1,4.1C8,4,8.1,4.1,8.1,4.1"/>
						<path id="XMLID_471_" class="st2" d="M8,4C8,4.1,8,4.1,8,4C8,4.1,8,4.1,8,4C8,4.1,8,4.1,8,4C8,4.1,8.1,4.1,8.1,4.1"/>
						<path id="XMLID_470_" class="st2" d="M8.1,4.2C8.1,4.2,8.1,4.2,8.1,4.2C8.1,4.2,8.1,4.2,8.1,4.2c-0.1,0-0.1,0-0.1,0
							c0,0,0,0,0,0c0,0,0,0,0,0c0,0,0.1,0,0.1,0C8.1,4.1,8.1,4.1,8.1,4.2C8.1,4.1,8.1,4.2,8.1,4.2C8.1,4.2,8.1,4.2,8.1,4.2"/>
						<path id="XMLID_469_" class="st2" d="M8,4.1C8,4.1,8,4.2,8,4.1C8.1,4.2,8.1,4.2,8,4.1C8.1,4.2,8.1,4.2,8,4.1
							C8.1,4.2,8.1,4.2,8,4.1"/>
						<path id="XMLID_468_" class="st2" d="M8.2,4.2C8.2,4.2,8.2,4.2,8.2,4.2c-0.1,0-0.1,0-0.1,0c0,0,0,0,0,0c0,0,0,0,0,0
							c0,0,0,0,0,0c0,0,0,0,0,0C8.1,4.1,8.1,4.1,8.2,4.2C8.1,4.1,8.1,4.1,8.2,4.2C8.1,4.1,8.2,4.1,8.2,4.2C8.2,4.1,8.2,4.2,8.2,4.2"
							/>
						<path id="XMLID_467_" class="st2" d="M8.3,4.2C8.3,4.2,8.2,4.2,8.3,4.2c-0.1,0-0.1,0-0.1,0c0,0-0.1,0,0,0c0,0,0,0,0,0
							C8.2,4.2,8.2,4.2,8.3,4.2C8.2,4.2,8.2,4.2,8.3,4.2C8.3,4.2,8.3,4.2,8.3,4.2"/>
						<path id="XMLID_466_" class="st2" d="M8.3,4.2C8.3,4.2,8.3,4.2,8.3,4.2c-0.1,0-0.1,0-0.1,0c0,0,0,0,0,0c0,0,0,0,0,0
							c0,0,0,0,0,0C8.2,4.1,8.2,4.1,8.3,4.2C8.2,4.1,8.2,4.1,8.3,4.2C8.2,4.1,8.2,4.1,8.3,4.2C8.3,4.1,8.3,4.1,8.3,4.2
							C8.3,4.1,8.3,4.2,8.3,4.2C8.3,4.2,8.3,4.2,8.3,4.2"/>
						<path id="XMLID_465_" class="st2" d="M8.2,4.1C8.2,4.1,8.2,4.1,8.2,4.1C8.3,4.1,8.3,4.2,8.2,4.1"/>
						<path id="XMLID_464_" class="st2" d="M8.3,4.2C8.3,4.2,8.3,4.2,8.3,4.2C8.3,4.2,8.3,4.2,8.3,4.2C8.3,4.3,8.3,4.3,8.3,4.2
							C8.3,4.3,8.3,4.3,8.3,4.2c-0.1,0-0.1,0-0.1,0c0,0,0,0,0,0C8.2,4.2,8.3,4.2,8.3,4.2C8.3,4.2,8.3,4.2,8.3,4.2
							C8.3,4.2,8.3,4.2,8.3,4.2"/>
					</g>
					<g id="XMLID_960_">
						<path id="XMLID_463_" class="st2" d="M8.6,3.4C8.6,3.4,8.6,3.4,8.6,3.4C8.5,3.4,8.5,3.4,8.6,3.4c-0.1,0-0.1,0-0.1,0
							c0,0,0,0,0,0C8.5,3.4,8.5,3.4,8.6,3.4C8.5,3.4,8.5,3.4,8.6,3.4C8.6,3.4,8.6,3.4,8.6,3.4C8.6,3.4,8.6,3.4,8.6,3.4"/>
						<path id="XMLID_462_" class="st2" d="M8.6,3.5C8.6,3.5,8.6,3.5,8.6,3.5C8.6,3.5,8.5,3.5,8.6,3.5c-0.1,0-0.1,0-0.1,0
							C8.5,3.5,8.5,3.5,8.6,3.5C8.5,3.5,8.6,3.5,8.6,3.5C8.6,3.5,8.6,3.5,8.6,3.5"/>
						<path id="XMLID_461_" class="st2" d="M8.6,3.5C8.6,3.5,8.6,3.5,8.6,3.5c-0.1,0-0.1,0-0.1,0c0,0,0,0,0,0
							C8.6,3.4,8.6,3.4,8.6,3.5C8.6,3.5,8.6,3.5,8.6,3.5"/>
						<path id="XMLID_460_" class="st2" d="M8.6,3.5C8.6,3.5,8.6,3.5,8.6,3.5C8.6,3.5,8.6,3.5,8.6,3.5C8.6,3.5,8.6,3.5,8.6,3.5"/>
						<path id="XMLID_459_" class="st2" d="M8.7,3.5C8.7,3.5,8.6,3.5,8.7,3.5c-0.1,0-0.1,0-0.1-0.1C8.6,3.4,8.6,3.4,8.7,3.5
							C8.7,3.4,8.7,3.4,8.7,3.5C8.7,3.4,8.7,3.4,8.7,3.5"/>
						<path id="XMLID_458_" class="st2" d="M8.7,3.5C8.7,3.5,8.7,3.6,8.7,3.5C8.7,3.6,8.7,3.6,8.7,3.5c-0.1,0-0.1,0-0.1,0
							c0,0,0,0,0,0c0,0,0,0,0,0C8.6,3.5,8.7,3.5,8.7,3.5C8.7,3.5,8.7,3.5,8.7,3.5"/>
						<path id="XMLID_457_" class="st2" d="M8.7,3.5C8.7,3.5,8.7,3.5,8.7,3.5C8.7,3.5,8.7,3.5,8.7,3.5C8.7,3.5,8.7,3.5,8.7,3.5
							c-0.1,0-0.1,0-0.1,0c0,0,0,0,0,0c0,0,0,0,0,0C8.6,3.5,8.6,3.5,8.7,3.5C8.7,3.5,8.7,3.5,8.7,3.5C8.7,3.5,8.7,3.5,8.7,3.5"/>
						<path id="XMLID_456_" class="st2" d="M8.7,3.5C8.7,3.5,8.7,3.5,8.7,3.5C8.7,3.5,8.7,3.5,8.7,3.5"/>
						<path id="XMLID_455_" class="st2" d="M8.8,3.5C8.7,3.5,8.7,3.5,8.8,3.5c-0.1,0-0.1-0.1-0.1-0.1c0,0,0,0,0,0
							C8.7,3.4,8.7,3.4,8.8,3.5C8.7,3.4,8.7,3.4,8.8,3.5C8.8,3.4,8.8,3.5,8.8,3.5C8.8,3.5,8.8,3.5,8.8,3.5"/>
						<path id="XMLID_454_" class="st2" d="M8.8,3.6C8.8,3.6,8.8,3.6,8.8,3.6C8.7,3.6,8.7,3.6,8.8,3.6C8.7,3.6,8.7,3.6,8.7,3.6
							C8.7,3.6,8.7,3.5,8.8,3.6C8.8,3.6,8.8,3.6,8.8,3.6C8.8,3.6,8.8,3.6,8.8,3.6C8.8,3.6,8.8,3.6,8.8,3.6C8.8,3.6,8.8,3.6,8.8,3.6"
							/>
						<path id="XMLID_453_" class="st2" d="M8.9,3.6C8.8,3.5,8.8,3.5,8.9,3.6C8.8,3.5,8.8,3.4,8.8,3.4c0,0,0,0,0,0
							C8.8,3.4,8.9,3.5,8.9,3.6C8.9,3.5,8.9,3.5,8.9,3.6"/>
						<path id="XMLID_452_" class="st2" d="M8.8,3.6C8.8,3.6,8.8,3.6,8.8,3.6C8.8,3.6,8.8,3.6,8.8,3.6c-0.1,0-0.1,0-0.1,0
							c0,0,0,0,0,0c0,0,0,0,0,0C8.7,3.5,8.8,3.5,8.8,3.6C8.8,3.5,8.8,3.5,8.8,3.6C8.8,3.5,8.8,3.5,8.8,3.6C8.8,3.5,8.8,3.6,8.8,3.6"
							/>
						<path id="XMLID_451_" class="st2" d="M8.9,3.6C8.9,3.6,8.9,3.6,8.9,3.6C8.9,3.6,8.9,3.6,8.9,3.6C8.9,3.6,8.9,3.5,8.9,3.6
							c0-0.1-0.1-0.1,0-0.1C8.9,3.5,8.9,3.5,8.9,3.6C8.9,3.5,8.9,3.5,8.9,3.6C8.9,3.6,8.9,3.6,8.9,3.6"/>
						<path id="XMLID_450_" class="st2" d="M9,3.7C9,3.6,9,3.6,9,3.7C9,3.6,9,3.6,9,3.7C8.9,3.6,8.9,3.6,9,3.7
							C8.9,3.6,8.9,3.5,8.9,3.5C8.9,3.5,8.9,3.5,9,3.7C9,3.6,9,3.6,9,3.7C9,3.6,9,3.6,9,3.7"/>
						<path id="XMLID_449_" class="st2" d="M8.9,3.6C8.9,3.6,8.9,3.6,8.9,3.6C8.8,3.6,8.8,3.6,8.9,3.6C8.8,3.6,8.8,3.6,8.9,3.6
							C8.8,3.6,8.8,3.6,8.9,3.6C8.8,3.5,8.9,3.6,8.9,3.6C8.9,3.6,8.9,3.6,8.9,3.6C8.9,3.6,8.9,3.7,8.9,3.6"/>
						<path id="XMLID_448_" class="st2" d="M8.9,3.7C8.9,3.7,8.9,3.7,8.9,3.7C8.9,3.7,8.9,3.7,8.9,3.7C8.8,3.7,8.8,3.7,8.8,3.6
							c0,0,0,0,0,0c0,0,0,0,0,0C8.9,3.6,8.9,3.6,8.9,3.7C8.9,3.7,8.9,3.7,8.9,3.7C8.9,3.7,8.9,3.7,8.9,3.7"/>
						<path id="XMLID_447_" class="st2" d="M9,3.7C9,3.7,9,3.7,9,3.7C9,3.7,9,3.7,9,3.7C8.9,3.7,8.9,3.7,9,3.7
							c-0.1,0-0.1-0.1-0.1-0.1c0,0,0,0,0,0c0,0,0,0,0,0c0,0,0,0,0,0C9,3.6,9,3.7,9,3.7C9,3.7,9,3.7,9,3.7"/>
						<path id="XMLID_446_" class="st2" d="M9,3.8C9,3.8,9,3.8,9,3.8C9,3.8,9,3.8,9,3.8C9,3.7,9,3.7,9,3.8c0-0.1,0-0.1,0-0.1
							c0,0,0,0,0-0.1c0,0,0,0,0,0c0,0,0,0,0,0c0,0,0,0,0,0C9,3.7,9,3.7,9,3.8C9,3.7,9,3.8,9,3.8C9,3.8,9,3.8,9,3.8"/>
						<path id="XMLID_445_" class="st2" d="M8.9,3.9C8.9,3.9,8.9,3.8,8.9,3.9C8.9,3.8,8.9,3.8,8.9,3.9c0-0.1,0-0.1,0-0.1
							c0,0,0,0,0,0c0,0,0,0,0,0c0,0,0,0,0,0C8.9,3.8,8.9,3.8,8.9,3.9C8.9,3.8,8.9,3.8,8.9,3.9C8.9,3.9,8.9,3.9,8.9,3.9
							C8.9,3.9,8.9,3.9,8.9,3.9"/>
						<path id="XMLID_444_" class="st2" d="M8.9,3.9C8.9,3.9,8.9,3.9,8.9,3.9C8.9,3.8,8.9,3.8,8.9,3.9c0-0.1,0-0.1,0-0.1
							c0,0,0,0,0,0c0,0,0.1,0,0.1,0.1C9,3.8,9,3.8,8.9,3.9C9,3.8,9,3.9,8.9,3.9C8.9,3.9,8.9,3.9,8.9,3.9"/>
						<path id="XMLID_443_" class="st2" d="M9,3.8C9,3.8,9,3.8,9,3.8C9,3.8,9,3.8,9,3.8"/>
						<path id="XMLID_442_" class="st2" d="M9,3.9C9,3.9,9,3.9,9,3.9C9,3.9,9,3.9,9,3.9C9,3.8,9,3.8,9,3.9C9,3.8,9,3.8,9,3.8
							c0,0,0,0,0,0c0,0,0,0,0,0.1C9,3.8,9,3.9,9,3.9C9,3.9,9,3.9,9,3.9C9,3.9,9,3.9,9,3.9"/>
						<path id="XMLID_441_" class="st2" d="M9,3.8C9,3.8,9,3.9,9,3.8C9,3.9,9,3.9,9,3.8"/>
						<path id="XMLID_440_" class="st2" d="M8.8,4C8.8,3.9,8.8,3.9,8.8,4C8.8,3.9,8.8,3.9,8.8,4c0-0.1,0-0.1,0-0.1c0,0,0,0,0,0
							c0,0,0,0,0,0C8.9,3.9,8.9,3.9,8.8,4C8.9,3.9,8.9,3.9,8.8,4C8.9,3.9,8.9,3.9,8.8,4C8.8,4,8.8,4,8.8,4"/>
						<path id="XMLID_439_" class="st2" d="M8.9,3.9C8.9,3.9,8.9,3.9,8.9,3.9"/>
						<path id="XMLID_438_" class="st2" d="M8.8,4C8.8,4,8.8,4,8.8,4C8.9,3.9,8.9,3.9,8.8,4c0.1-0.1,0.1-0.1,0.1-0.1c0,0,0,0,0,0
							c0,0,0,0,0,0C9,3.9,8.9,4,8.8,4C8.9,4,8.9,4,8.8,4C8.9,4,8.9,4,8.8,4C8.9,4,8.8,4,8.8,4"/>
						<path id="XMLID_437_" class="st2" d="M8.9,3.9C8.9,3.9,8.9,3.9,8.9,3.9C8.9,4,8.9,4,8.9,3.9"/>
						<path id="XMLID_436_" class="st2" d="M8.9,4C8.9,4,8.9,4,8.9,4C8.9,4,8.9,4,8.9,4C8.9,3.9,9,3.9,9,3.9c0,0,0,0,0,0
							c0,0,0,0,0,0c0,0,0,0,0,0c0,0,0,0,0,0.1C9,4,9,4,8.9,4C9,4,8.9,4,8.9,4"/>
						<path id="XMLID_435_" class="st2" d="M9,3.9C9,3.9,9,4,9,3.9C9,4,9,4,9,3.9C8.9,4,8.9,4,9,3.9"/>
						<path id="XMLID_434_" class="st2" d="M8.7,4.1C8.7,4,8.7,4,8.7,4.1C8.7,4,8.7,4,8.7,4.1C8.8,4,8.8,4,8.8,3.9c0,0,0,0,0,0
							c0,0,0,0,0,0C8.8,4,8.8,4,8.7,4.1C8.8,4.1,8.7,4.1,8.7,4.1"/>
						<path id="XMLID_433_" class="st2" d="M8.8,4C8.8,4,8.8,4,8.8,4C8.9,4,8.9,4,8.9,4c0,0,0,0,0,0c0,0,0,0,0,0.1
							C8.9,4.1,8.8,4.1,8.8,4L8.8,4"/>
						<path id="XMLID_432_" class="st2" d="M8.9,4C8.8,4,8.8,4,8.9,4"/>
						<path id="XMLID_431_" class="st2" d="M8.8,4.1C8.8,4.1,8.8,4.1,8.8,4.1C8.9,4,8.9,4,8.8,4.1C8.9,4,8.9,4,8.9,4c0,0,0,0,0,0
							c0,0,0,0,0,0C8.9,4.1,8.9,4.1,8.8,4.1C8.9,4.1,8.9,4.1,8.8,4.1C8.9,4.1,8.8,4.1,8.8,4.1"/>
						<path id="XMLID_430_" class="st2" d="M8.6,4.1C8.6,4.1,8.6,4.1,8.6,4.1C8.7,4,8.7,4,8.7,4c0,0,0,0,0,0C8.7,4,8.7,4.1,8.6,4.1
							C8.7,4.1,8.7,4.1,8.6,4.1C8.6,4.1,8.6,4.1,8.6,4.1"/>
						<path id="XMLID_429_" class="st2" d="M8.7,4.1C8.7,4.1,8.7,4.1,8.7,4.1C8.7,4.1,8.7,4.1,8.7,4.1C8.7,4.1,8.7,4.1,8.7,4.1
							C8.8,4,8.8,4,8.8,4c0,0,0,0,0,0c0,0,0,0,0,0c0,0,0,0,0,0C8.8,4.1,8.7,4.2,8.7,4.1C8.7,4.2,8.7,4.2,8.7,4.1
							C8.7,4.1,8.7,4.1,8.7,4.1C8.7,4.1,8.7,4.1,8.7,4.1"/>
						<path id="XMLID_428_" class="st2" d="M8.8,4.1C8.8,4.1,8.8,4.1,8.8,4.1c-0.1,0-0.1,0-0.1,0.1"/>
						<path id="XMLID_427_" class="st2" d="M8.7,4.2C8.7,4.2,8.8,4.1,8.7,4.2C8.8,4.1,8.8,4.1,8.7,4.2c0.1-0.1,0.1-0.1,0.1-0.1
							c0,0,0,0,0,0c0,0,0,0,0,0C8.9,4.1,8.8,4.2,8.7,4.2C8.8,4.2,8.8,4.2,8.7,4.2C8.7,4.2,8.7,4.2,8.7,4.2"/>
						<path id="XMLID_426_" class="st2" d="M8.6,4.2C8.6,4.2,8.6,4.2,8.6,4.2c0.1-0.1,0.1-0.1,0.1-0.1c0,0,0,0,0,0c0,0,0,0,0,0
							c0,0,0,0,0,0C8.7,4.2,8.7,4.2,8.6,4.2C8.7,4.2,8.6,4.2,8.6,4.2C8.6,4.2,8.6,4.2,8.6,4.2C8.6,4.2,8.6,4.2,8.6,4.2
							C8.6,4.2,8.6,4.2,8.6,4.2"/>
						<path id="XMLID_425_" class="st2" d="M8.7,4.2C8.6,4.2,8.6,4.2,8.7,4.2"/>
						<path id="XMLID_424_" class="st2" d="M8.5,4.2C8.6,4.2,8.6,4.2,8.5,4.2C8.6,4.1,8.6,4.1,8.5,4.2c0.1-0.1,0.1-0.1,0.1-0.1
							c0,0,0,0,0,0c0,0,0,0,0,0C8.7,4.1,8.7,4.2,8.5,4.2C8.6,4.2,8.6,4.2,8.5,4.2C8.6,4.2,8.6,4.2,8.5,4.2"/>
						<path id="XMLID_423_" class="st2" d="M8.6,4.1C8.6,4.1,8.6,4.1,8.6,4.1C8.6,4.1,8.6,4.1,8.6,4.1"/>
						<path id="XMLID_422_" class="st2" d="M8.5,4.2C8.5,4.2,8.5,4.2,8.5,4.2C8.5,4.1,8.5,4.1,8.5,4.2C8.6,4.1,8.6,4.1,8.5,4.2
							c0.1-0.1,0.1-0.1,0.1-0.1c0,0,0,0,0,0c0,0,0,0,0,0C8.6,4.1,8.6,4.2,8.5,4.2C8.5,4.2,8.5,4.2,8.5,4.2"/>
						<path id="XMLID_421_" class="st2" d="M8.5,4.2C8.5,4.2,8.5,4.2,8.5,4.2C8.5,4.3,8.5,4.3,8.5,4.2c0.1,0,0.1,0,0.1,0
							c0,0,0,0,0,0c0,0,0,0,0,0C8.6,4.2,8.6,4.2,8.5,4.2C8.5,4.2,8.5,4.2,8.5,4.2C8.5,4.2,8.5,4.2,8.5,4.2"/>
						<path id="XMLID_420_" class="st2" d="M8.5,4.2C8.5,4.2,8.5,4.2,8.5,4.2"/>
					</g>
					<g id="XMLID_954_">
						<path id="XMLID_419_" class="st4" d="M8.4,4.2C8.4,4.2,8.3,4.2,8.4,4.2C8.2,4.1,8.2,4,8.2,4l0,0c0,0,0,0,0.1,0.1
							C8.4,4.1,8.4,4.2,8.4,4.2"/>
						<path id="XMLID_418_" class="st4" d="M8.5,4.1c0,0-0.1,0.1-0.1,0.1c0,0,0-0.1,0-0.1C8.5,4,8.5,4,8.5,4C8.6,4,8.6,4.1,8.5,4.1z
							"/>
						<path id="XMLID_417_" class="st4" d="M8.4,4.2C8.4,4.2,8.4,4.3,8.4,4.2C8.3,4.3,8.3,4.4,8.3,4.4l0,0c0,0,0,0,0,0
							c-0.1,0-0.1,0-0.1,0l0,0c0,0,0.1-0.1,0.1-0.1c0.1,0,0.1,0,0.1,0S8.3,4.3,8.4,4.2C8.3,4.2,8.4,4.2,8.4,4.2"/>
						<path id="XMLID_416_" class="st4" d="M8.4,4.2C8.4,4.2,8.5,4.2,8.4,4.2L8.4,4.2c0.1,0.1,0.1,0.1,0.1,0.1s0.1,0,0.1,0
							c0,0,0.1,0,0.1,0l0,0l0,0c0,0,0-0.1-0.1-0.1c0,0,0,0,0,0l0,0C8.5,4.3,8.5,4.3,8.4,4.2C8.5,4.3,8.4,4.3,8.4,4.2"/>
						<path id="XMLID_415_" class="st4" d="M8.5,4.2C8.4,4.3,8.4,4.3,8.5,4.2C8.4,4.3,8.4,4.3,8.5,4.2C8.4,4.2,8.4,4.2,8.5,4.2
							C8.4,4.2,8.5,4.2,8.5,4.2z"/>
					</g>
					<path id="XMLID_414_" class="st5" d="M8.4,4.2C8.4,4.2,8.4,4.1,8.4,4.2C8.3,4.1,8.3,4,8.3,4S8.3,4.1,8.4,4.2
						C8.3,4.2,8.4,4.2,8.4,4.2"/>
					<path id="XMLID_413_" class="st5" d="M8.5,4C8.5,4,8.5,4.1,8.5,4C8.5,4.1,8.4,4.2,8.4,4.2"/>
					<line id="XMLID_412_" class="st5" x1="8.2" y1="4.1" x2="8.3" y2="4.1"/>
					<g id="XMLID_907_">
						<g id="XMLID_948_">
							<path id="XMLID_411_" class="st3" d="M8.4,4.3c0,0-0.3,0.1-0.6,0.1c-0.3,0-0.4-0.1-0.4-0.1S7.4,4.5,7.3,4.6
								C7.2,4.7,7,4.8,7,4.8s0.3,0.3,0.3,0.5c0,0.5-0.4,0.5-0.3,1c0,0.3,0.3,0.5,0.6,0.5C8,6.9,8.3,7,8.4,7.2"/>
							<path id="XMLID_410_" class="st3" d="M8.4,4.3c0,0,0.2,0.1,0.6,0.1c0.3,0,0.4-0.1,0.4-0.1s0.1,0.1,0.2,0.3
								c0.1,0.1,0.3,0.2,0.3,0.2S9.5,5.1,9.5,5.4c0,0.5,0.4,0.5,0.3,1c0,0.3-0.3,0.5-0.6,0.5C8.8,7,8.6,7,8.4,7.2"/>
						</g>
						<path id="XMLID_409_" class="st7" d="M8.4,5.4H7.5c0,0,0-0.2-0.1-0.3C7.3,4.9,7.2,4.9,7.2,4.9s0.1-0.1,0.2-0.2
							c0.1-0.1,0.1-0.2,0.1-0.2s0.1,0,0.4,0.1c0.2,0,0.5-0.1,0.5-0.1V5.4z"/>
						<path id="XMLID_408_" class="st8" d="M8.5,5.4h0.9c0,0,0-0.2,0.1-0.3c0.1-0.2,0.2-0.3,0.2-0.3S9.5,4.8,9.4,4.7
							C9.3,4.5,9.3,4.5,9.3,4.5S9.2,4.5,9,4.5c-0.2,0-0.5-0.1-0.5-0.1V5.4z"/>
						<g id="XMLID_916_">
							<path id="XMLID_407_" class="st2" d="M8.9,5.4C8.9,5.4,8.9,5.4,8.9,5.4c0-0.1,0-0.1,0-0.1c0,0,0,0,0-0.1c0,0,0,0,0,0
								c0,0,0,0,0,0c0,0,0,0,0,0h0c0,0-0.1,0-0.1,0c0,0,0,0,0,0c0,0,0,0,0,0l0,0c0,0-0.1,0-0.1-0.1c0,0,0,0-0.1,0c0,0,0,0,0,0
								c0,0,0,0,0,0s0,0,0,0c0,0,0,0,0,0c0,0,0,0,0,0c0,0,0,0,0-0.1c0,0,0,0,0,0s0,0,0,0c0,0,0,0,0,0c0,0,0-0.1,0.1-0.1c0,0,0,0,0,0
								c0,0,0,0,0,0c0,0,0,0,0,0c0,0,0,0,0.1,0c0,0,0-0.1,0-0.1c0,0,0.1,0,0.1,0s0,0,0.1,0c0,0,0,0,0,0c0,0,0,0,0,0
								c0.1,0,0.1,0,0.1,0.1c0,0,0.1,0,0.1,0c0,0,0,0.1,0,0.1c0,0,0,0,0.1,0c0,0,0,0,0,0.1c0,0,0,0,0,0c0,0,0,0,0,0c0,0,0,0.1,0,0.1
								c0,0,0,0,0,0s0,0,0,0c0,0,0,0-0.1,0.1c0,0,0,0,0,0c0,0,0,0-0.1,0c0,0,0,0,0,0c0,0,0,0,0,0s0,0,0,0.1c0,0.1,0,0.1,0,0.2"/>
							<path id="XMLID_406_" class="st2" d="M8.9,4.6C8.9,4.6,8.9,4.6,8.9,4.6C8.9,4.7,8.9,4.7,8.9,4.6"/>
							<path id="XMLID_405_" class="st2" d="M8.9,4.7C8.9,4.7,8.9,4.7,8.9,4.7"/>
							<path id="XMLID_404_" class="st2" d="M8.8,4.7C8.8,4.7,8.8,4.8,8.8,4.7c0,0.1,0,0.1,0,0.1c0,0,0,0,0,0"/>
							<path id="XMLID_403_" class="st2" d="M8.7,4.8C8.7,4.8,8.7,4.9,8.7,4.8c0,0.1,0.1,0.1,0.1,0.1"/>
							<path id="XMLID_402_" class="st2" d="M8.7,4.8c0,0,0,0.1,0,0.1"/>
							<path id="XMLID_401_" class="st2" d="M8.7,5C8.7,5,8.7,5,8.7,5C8.8,5,8.8,5,8.7,5"/>
							<path id="XMLID_400_" class="st2" d="M8.8,4.9C8.8,4.9,8.8,5,8.8,4.9C8.9,5,8.9,5,8.8,4.9"/>
							<path id="XMLID_399_" class="st2" d="M9,4.8C9,4.8,9,4.8,9,4.8C9,4.8,9,4.8,9,4.8C8.9,4.9,8.9,4.9,8.9,4.9"/>
							<path id="XMLID_398_" class="st2" d="M9,4.7c0,0,0,0.1,0,0.1"/>
							<path id="XMLID_397_" class="st2" d="M9.1,4.8C9.1,4.8,9.2,4.8,9.1,4.8C9.2,4.9,9.2,4.9,9.1,4.8c0,0.1,0,0.1,0,0.1"/>
							<path id="XMLID_396_" class="st2" d="M9.1,4.7C9.1,4.8,9.1,4.8,9.1,4.7c0,0.1,0,0.1,0,0.1c0,0,0,0,0,0"/>
							<path id="XMLID_395_" class="st2" d="M9.2,4.9C9.2,4.9,9.2,4.9,9.2,4.9C9.2,5,9.2,5,9.2,5"/>
							<path id="XMLID_394_" class="st2" d="M9.1,4.9c0,0,0,0.1,0,0.1"/>
							<path id="XMLID_393_" class="st2" d="M9,4.9C9,4.9,9,5,9,4.9C9,5,9,5,8.9,5"/>
							<path id="XMLID_392_" class="st2" d="M9.1,5C9.1,5.1,9.1,5.1,9.1,5C9,5.1,9,5.1,9,5.2"/>
							<path id="XMLID_391_" class="st2" d="M9.1,5C9.1,5.1,9.1,5.1,9.1,5c0,0.1-0.1,0.1-0.1,0.1"/>
							<path id="XMLID_390_" class="st2" d="M9.2,5C9.2,5,9.2,5,9.2,5C9.2,5.1,9.2,5.1,9.2,5C9.2,5.1,9.2,5.1,9.2,5"/>
							<path id="XMLID_389_" class="st2" d="M8.9,5.1C8.8,5.1,8.8,5.1,8.9,5.1C8.8,5.1,8.8,5.1,8.9,5.1"/>
							<path id="XMLID_388_" class="st2" d="M8.8,5.1C8.8,5.1,8.9,5.1,8.8,5.1c0.1,0,0.1,0,0.1,0"/>
							<path id="XMLID_387_" class="st2" d="M8.7,5C8.7,5.1,8.7,5.1,8.7,5c0.1,0.1,0.1,0.1,0.1,0"/>
							<path id="XMLID_386_" class="st2" d="M8.6,4.9C8.6,5,8.6,5,8.6,4.9"/>
							<path id="XMLID_385_" class="st2" d="M8.9,5.2C8.9,5.2,9,5.2,8.9,5.2"/>
							<path id="XMLID_384_" class="st2" d="M8.9,5.2C8.9,5.2,9,5.2,8.9,5.2"/>
							<path id="XMLID_383_" class="st2" d="M8.9,5.3C8.9,5.3,9,5.3,8.9,5.3"/>
							<path id="XMLID_382_" class="st2" d="M8.9,5.3C8.9,5.3,9,5.3,8.9,5.3"/>
							<path id="XMLID_381_" class="st2" d="M8.9,5.3C8.9,5.3,9,5.3,8.9,5.3"/>
							<path id="XMLID_380_" class="st2" d="M8.9,5.4C8.9,5.4,9,5.4,8.9,5.4"/>
							<path id="XMLID_379_" class="st2" d="M8.9,5.4C8.9,5.4,9,5.4,8.9,5.4"/>
						</g>
						<path id="XMLID_378_" class="st4" d="M9.5,5.8C9.4,5.6,9.4,5.5,9.4,5.5H8.4h-1c0,0,0,0.1-0.1,0.2C7.3,5.9,7.1,6.1,7.2,6.4
							C7.3,6.8,7.8,6.8,8,6.8C8.3,6.9,8.4,7,8.4,7s0,0,0,0c0,0,0.1-0.1,0.4-0.2c0.2-0.1,0.7-0.1,0.8-0.4C9.8,6.1,9.5,5.9,9.5,5.8z"
							/>
						<g id="XMLID_908_">
							<g id="XMLID_911_">
								<path id="XMLID_377_" class="st3" d="M7.6,5.1C7.6,5.1,7.6,5.1,7.6,5.1c0,0.1,0,0.1,0,0.1c0,0,0,0,0,0c0,0,0,0,0,0.1
									c0,0,0,0,0,0c0,0,0,0,0,0c0,0,0,0,0,0c0,0,0,0,0,0l0.1,0c0,0,0,0,0-0.1c0,0,0,0,0-0.1c0,0,0,0,0-0.1c0,0,0,0,0.1-0.1"/>
								<path id="XMLID_376_" class="st3" d="M8.1,5.1C8.1,5.1,8.1,5.1,8.1,5.1c0,0,0,0.1,0,0.2c0,0.1,0,0.2,0,0.2H8.1"/>
								<path id="XMLID_375_" class="st3" d="M7.8,5.1C7.8,5.1,7.8,5.1,7.8,5.1c-0.1,0-0.1,0-0.1,0c0,0-0.1,0-0.1,0c0,0,0,0,0,0
									c0,0,0,0,0,0c0,0,0,0,0-0.1c0,0,0-0.1,0-0.1c0,0,0,0,0.1-0.1c0,0,0.1,0,0.2,0c0,0,0.1,0,0.1,0c0,0,0-0.1,0-0.1c0,0,0,0,0,0
									c0,0,0,0,0,0s0,0,0,0c0,0,0,0,0-0.1c0,0,0,0,0-0.1c0,0,0,0.1,0.1,0.1c0,0,0,0,0-0.1c0,0,0,0,0,0c0,0,0,0,0,0.1
									c0,0,0,0,0,0.1c0.1,0,0.1,0,0.1,0.1c0,0.1-0.1,0-0.1,0c0,0,0,0,0,0c0,0,0,0.1,0,0.1c0,0.1,0,0.1,0,0.2c0,0,0,0.1,0,0.1
									c0,0,0,0,0,0c0,0-0.1,0-0.1,0s0,0-0.1,0C7.9,5.2,7.8,5.2,7.8,5.1"/>
							</g>
							<path id="XMLID_374_" class="st3" d="M7.6,5.1c0,0.1,0,0.1,0,0.2c0,0,0,0,0,0c0,0,0,0,0,0c0,0,0,0,0,0.1c0,0,0,0.1,0,0.1
								l0.1,0c0,0,0-0.1,0-0.1c0,0,0,0,0,0c0,0,0,0,0,0c0,0,0,0,0,0c0,0,0,0,0,0c0,0,0-0.1,0-0.1"/>
							<path id="XMLID_373_" class="st3" d="M8,5.1C8,5.1,8,5.2,8,5.1c0,0.1,0,0.1,0,0.2c0,0.1,0,0.2,0,0.2l0.1,0c0,0,0,0,0-0.1
								c0,0,0-0.1,0-0.1c0,0,0,0,0-0.1c0,0,0-0.1,0-0.1c0,0,0,0,0,0"/>
						</g>
					</g>
				</g>
				<path id="XMLID_372_" class="st3" d="M7.6,5.9L7.5,6.1l0,0.1c0,0,0.4,0.3,0.4,0.3c0,0,0.4,0.1,0.4,0.1l0.2,0.1h0.2l0.2-0.1
					l0-0.1l-0.3,0L8.4,6.4L8.2,6.2L8,5.9L7.6,5.9z"/>
				<g id="XMLID_812_">
					<g id="XMLID_844_">
						<ellipse id="XMLID_371_" class="st3" cx="7.8" cy="6.5" rx="0.1" ry="0"/>
						<circle id="XMLID_370_" class="st3" cx="8" cy="6.3" r="0"/>
						<circle id="XMLID_369_" class="st3" cx="7.6" cy="6" r="0"/>
						<circle id="XMLID_368_" class="st3" cx="8.1" cy="6.4" r="0.1"/>
						<circle id="XMLID_367_" class="st3" cx="8.2" cy="6.4" r="0"/>
						<circle id="XMLID_366_" class="st3" cx="8.2" cy="6.5" r="0.1"/>
						<circle id="XMLID_365_" class="st3" cx="8.5" cy="6.5" r="0.1"/>
						<circle id="XMLID_364_" class="st3" cx="8.2" cy="6.5" r="0.1"/>
						<circle id="XMLID_363_" class="st3" cx="8.3" cy="6.6" r="0.1"/>
						<circle id="XMLID_362_" class="st3" cx="8.4" cy="6.4" r="0.1"/>
						<circle id="XMLID_361_" class="st3" cx="8.5" cy="6.6" r="0.1"/>
						<circle id="XMLID_360_" class="st3" cx="8.4" cy="6.6" r="0.1"/>
						<circle id="XMLID_359_" class="st3" cx="8.4" cy="6.4" r="0.1"/>
						<circle id="XMLID_358_" class="st3" cx="8.5" cy="6.5" r="0.1"/>
						<circle id="XMLID_357_" class="st3" cx="8.6" cy="6.7" r="0.1"/>
						<ellipse id="XMLID_356_" class="st3" cx="8.3" cy="6.5" rx="0" ry="0.1"/>
						<ellipse id="XMLID_355_" class="st3" cx="8.3" cy="6.5" rx="0" ry="0.1"/>
						<circle id="XMLID_354_" class="st3" cx="8.4" cy="6.4" r="0"/>
						<circle id="XMLID_353_" class="st3" cx="8.8" cy="6.5" r="0"/>
						<circle id="XMLID_352_" class="st3" cx="7.9" cy="6.1" r="0.1"/>
						<circle id="XMLID_351_" class="st3" cx="7.6" cy="6.3" r="0.1"/>
						<circle id="XMLID_350_" class="st6" cx="7.8" cy="6.2" r="0.1"/>
						<circle id="XMLID_349_" class="st6" cx="7.7" cy="6.3" r="0.1"/>
						<circle id="XMLID_348_" class="st6" cx="7.7" cy="6.5" r="0.1"/>
						<circle id="XMLID_347_" class="st6" cx="7.6" cy="6.4" r="0.1"/>
						<circle id="XMLID_346_" class="st6" cx="7.5" cy="6.3" r="0.1"/>
						<circle id="XMLID_345_" class="st6" cx="7.5" cy="6.2" r="0.1"/>
						<circle id="XMLID_344_" class="st6" cx="7.7" cy="6.2" r="0.1"/>
						<circle id="XMLID_343_" class="st6" cx="7.6" cy="6.2" r="0.1"/>
						<circle id="XMLID_342_" class="st6" cx="7.6" cy="6.1" r="0.1"/>
						<circle id="XMLID_341_" class="st6" cx="7.7" cy="6.1" r="0.1"/>
						<circle id="XMLID_340_" class="st6" cx="7.8" cy="6.1" r="0.1"/>
						<circle id="XMLID_339_" class="st6" cx="8.1" cy="6.1" r="0.1"/>
						<circle id="XMLID_338_" class="st6" cx="8" cy="6" r="0.1"/>
						<circle id="XMLID_337_" class="st6" cx="8" cy="6.1" r="0.1"/>
						<circle id="XMLID_336_" class="st6" cx="7.9" cy="6" r="0.1"/>
						<circle id="XMLID_335_" class="st6" cx="7.8" cy="6" r="0.1"/>
						<circle id="XMLID_334_" class="st6" cx="8.2" cy="6.2" r="0.1"/>
						<circle id="XMLID_333_" class="st6" cx="8" cy="6.3" r="0.1"/>
						<circle id="XMLID_332_" class="st6" cx="8.1" cy="6.3" r="0.1"/>
						<circle id="XMLID_331_" class="st6" cx="8.2" cy="6.1" r="0.1"/>
						<circle id="XMLID_330_" class="st6" cx="8.1" cy="6.1" r="0.1"/>
						<circle id="XMLID_329_" class="st6" cx="8.3" cy="6.1" r="0.1"/>
						<circle id="XMLID_328_" class="st6" cx="8.2" cy="6.3" r="0.1"/>
						<circle id="XMLID_327_" class="st6" cx="7.9" cy="6.3" r="0.1"/>
						<circle id="XMLID_326_" class="st6" cx="7.8" cy="6.4" r="0.1"/>
						<circle id="XMLID_325_" class="st6" cx="7.9" cy="6.5" r="0.1"/>
						<circle id="XMLID_324_" class="st6" cx="8" cy="6.4" r="0.1"/>
						<circle id="XMLID_323_" class="st6" cx="8" cy="6.6" r="0.1"/>
						<circle id="XMLID_322_" class="st6" cx="8.2" cy="6.6" r="0.1"/>
						<circle id="XMLID_321_" class="st6" cx="8" cy="6.5" r="0.1"/>
						<circle id="XMLID_320_" class="st6" cx="8.1" cy="6.5" r="0.1"/>
						<circle id="XMLID_319_" class="st6" cx="8.1" cy="6.4" r="0.1"/>
						<circle id="XMLID_318_" class="st6" cx="8.7" cy="6.6" r="0.1"/>
						<circle id="XMLID_317_" class="st6" cx="8.7" cy="6.5" r="0.1"/>
						<circle id="XMLID_316_" class="st6" cx="8.6" cy="6.6" r="0.1"/>
						<circle id="XMLID_315_" class="st6" cx="8.4" cy="6.7" r="0.1"/>
						<circle id="XMLID_314_" class="st6" cx="8.5" cy="6.7" r="0.1"/>
						<circle id="XMLID_313_" class="st6" cx="8.8" cy="6.6" r="0.1"/>
						<ellipse id="XMLID_312_" class="st9" cx="8.2" cy="6.4" rx="0.1" ry="0.1"/>
					</g>
					<g id="XMLID_813_">
						<g id="XMLID_822_">
							<path id="XMLID_311_" class="st3" d="M8.6,5.9C8.6,5.9,8.6,5.9,8.6,5.9C8.6,5.9,8.6,5.9,8.6,5.9C8.6,6,8.6,6,8.6,6
								c0,0,0,0.1-0.1,0.1c0,0,0,0.1,0,0c0,0,0,0,0,0c0,0,0-0.1,0-0.1C8.5,6,8.6,6,8.6,5.9C8.6,5.9,8.6,5.9,8.6,5.9
								C8.6,5.9,8.6,5.9,8.6,5.9"/>
							<path id="XMLID_310_" class="st3" d="M8.6,6.1C8.6,6.1,8.6,6.1,8.6,6.1C8.6,6.1,8.6,6.1,8.6,6.1c0,0.1,0,0.1,0,0.1
								c0,0,0,0,0,0C8.6,6.2,8.5,6.2,8.6,6.1C8.5,6.1,8.5,6.1,8.6,6.1C8.5,6.1,8.6,6.1,8.6,6.1c0-0.1,0-0.1,0-0.1c0,0,0,0,0,0
								c0,0,0,0,0,0c0,0,0,0,0,0C8.7,6,8.7,6,8.6,6.1C8.6,6,8.6,6,8.6,6.1"/>
							<path id="XMLID_309_" class="st3" d="M8.6,6.1C8.6,6.1,8.6,6.1,8.6,6.1C8.7,6,8.7,6,8.7,6c0,0,0,0,0,0c0,0,0,0,0,0
								C8.6,6,8.6,6.1,8.6,6.1C8.6,6.1,8.6,6.2,8.6,6.1c-0.1,0.1,0,0.1,0,0.1C8.6,6.2,8.6,6.2,8.6,6.1C8.6,6.2,8.6,6.2,8.6,6.1
								C8.6,6.1,8.6,6.1,8.6,6.1"/>
							<path id="XMLID_308_" class="st3" d="M8.7,6.1C8.7,6.1,8.7,6.1,8.7,6.1c0-0.1,0-0.1,0-0.1c0,0,0,0,0,0c0,0,0,0,0,0
								C8.7,6,8.7,6,8.7,6.1C8.6,6.1,8.6,6.1,8.7,6.1C8.6,6.2,8.6,6.2,8.7,6.1c-0.1,0.1,0,0.1,0,0.1C8.7,6.3,8.7,6.2,8.7,6.1
								C8.7,6.2,8.7,6.2,8.7,6.1"/>
							<g id="XMLID_823_">
								<path id="XMLID_307_" class="st3" d="M8.7,6.2C8.7,6.2,8.7,6.1,8.7,6.2C8.7,6.1,8.8,6.1,8.7,6.2c0-0.1,0-0.1,0-0.1
									c0,0,0,0,0,0c0,0,0,0,0,0C8.7,6.1,8.7,6.1,8.7,6.2C8.7,6.1,8.7,6.1,8.7,6.2C8.7,6.2,8.7,6.2,8.7,6.2
									C8.7,6.3,8.7,6.3,8.7,6.2C8.7,6.3,8.7,6.2,8.7,6.2"/>
								<path id="XMLID_306_" class="st3" d="M8.8,6.2C8.8,6.2,8.8,6.2,8.8,6.2c0-0.1,0-0.1,0-0.1c0,0,0,0,0,0c0,0,0,0,0,0
									C8.7,6.1,8.7,6.2,8.8,6.2C8.7,6.2,8.7,6.2,8.8,6.2C8.7,6.3,8.7,6.3,8.8,6.2C8.7,6.3,8.7,6.3,8.8,6.2
									C8.7,6.3,8.8,6.3,8.8,6.2C8.8,6.3,8.8,6.3,8.8,6.2"/>
								<path id="XMLID_305_" class="st3" d="M8.9,6.2C8.9,6.2,8.9,6.2,8.9,6.2C8.8,6.2,8.8,6.2,8.9,6.2c0-0.1,0-0.1,0-0.1
									c0,0,0,0,0,0C8.8,6.1,8.8,6.1,8.9,6.2C8.8,6.1,8.8,6.2,8.9,6.2C8.8,6.2,8.8,6.2,8.9,6.2C8.8,6.3,8.8,6.3,8.8,6.3
									c0,0,0,0,0.1,0c0,0,0,0,0,0"/>
								<path id="XMLID_304_" class="st3" d="M8.9,6.2C8.9,6.2,8.9,6.2,8.9,6.2C8.9,6.1,8.9,6.1,8.9,6.2C8.9,6.1,8.9,6.1,8.9,6.2
									C8.9,6.1,8.8,6.1,8.9,6.2C8.8,6.1,8.8,6.1,8.9,6.2C8.8,6.2,8.8,6.2,8.9,6.2C8.8,6.2,8.8,6.3,8.8,6.3c0,0,0,0,0,0
									c0,0,0,0,0,0c0,0,0,0,0.1,0c0,0,0,0,0,0c0,0,0,0,0,0"/>
								<path id="XMLID_303_" class="st3" d="M9,6.2C9,6.2,9,6.2,9,6.2C8.9,6.1,8.9,6.1,9,6.2C8.9,6.1,8.9,6.2,9,6.2
									C8.9,6.2,8.9,6.2,9,6.2c-0.1,0.1-0.1,0.1,0,0.1c0,0,0,0.1,0,0.1c0,0,0,0,0.1,0c0,0,0,0,0,0c0,0,0,0,0,0c0,0,0,0,0,0"/>
								<path id="XMLID_302_" class="st3" d="M9,6.2C9,6.2,9,6.1,9,6.2C9,6.1,8.9,6.1,9,6.2C8.9,6.2,8.9,6.2,9,6.2
									C9,6.2,9,6.2,9,6.2c0,0.1,0,0.1,0,0.2c0,0,0.1,0,0.1,0c0,0,0.1,0,0,0"/>
								<path id="XMLID_301_" class="st3" d="M9.1,6.1C9.1,6.1,9,6.1,9.1,6.1C9,6.1,9,6.2,9.1,6.1C9,6.2,9,6.2,9.1,6.1
									c0,0.1,0,0.1,0,0.1c0,0,0,0,0,0c0,0,0,0,0,0c0,0,0,0,0,0c0,0,0,0,0,0"/>
								<path id="XMLID_300_" class="st3" d="M9.1,6.1C9.1,6.1,9.1,6.1,9.1,6.1C9.1,6.1,9.1,6.1,9.1,6.1C9,6.1,9.1,6.2,9.1,6.1
									c0,0.1,0,0.1,0.1,0.1c0,0,0,0,0.1,0c0,0,0,0,0,0c0,0,0,0,0,0c0,0,0,0,0,0c0,0,0,0,0,0"/>
								<path id="XMLID_299_" class="st3" d="M9.1,6.1C9.1,6.1,9.1,6.1,9.1,6.1C9.1,6.2,9.1,6.2,9.1,6.1c0.1,0.1,0.1,0.1,0.1,0.1
									c0,0,0,0,0,0c0,0,0-0.1,0-0.1"/>
								<path id="XMLID_298_" class="st3" d="M9.2,6.1C9.1,6.1,9.1,6.1,9.2,6.1C9.1,6.1,9.1,6.1,9.2,6.1C9.1,6.1,9.2,6.1,9.2,6.1
									c0.1,0.1,0.2,0.1,0.2,0c0,0,0,0,0,0c0,0,0,0,0,0"/>
								<path id="XMLID_297_" class="st3" d="M9.2,6C9.1,6,9.1,6,9.2,6C9.1,6.1,9.1,6.1,9.2,6c0,0.1,0.1,0.1,0.1,0.1c0,0,0,0,0,0
									c0,0,0,0,0,0C9.3,6,9.3,6,9.2,6"/>
								<path id="XMLID_296_" class="st3" d="M9.1,6C9.1,6,9.1,6,9.1,6C9.1,6,9.1,6,9.1,6C9.2,6,9.2,6,9.1,6c0.1,0,0.1,0,0.1,0
									C9.3,5.9,9.2,5.9,9.1,6"/>
								<path id="XMLID_295_" class="st3" d="M9.1,6C9.1,6,9.1,6,9.1,6C9.2,6,9.2,6,9.1,6c0.1,0,0.1-0.1,0.1-0.1
									C9.2,5.9,9.2,5.9,9.1,6"/>
								<path id="XMLID_294_" class="st3" d="M9.2,5.9C9.2,5.9,9.2,5.9,9.2,5.9C9.2,5.9,9.2,5.8,9.2,5.9C9.1,5.9,9.1,5.9,9.2,5.9
									C9.1,5.9,9.1,5.9,9.2,5.9C9.1,5.9,9.1,5.9,9.2,5.9C9.1,6,9.1,6,9.2,5.9"/>
								<path id="XMLID_293_" class="st3" d="M9.1,5.8C9.1,5.8,9.1,5.8,9.1,5.8C9.2,5.9,9.1,5.9,9.1,5.8c0,0.1,0,0.1,0,0.1
									c0,0,0,0,0,0C9,5.9,9,5.9,9.1,5.8"/>
								<path id="XMLID_292_" class="st3" d="M9.1,5.9C9.1,5.9,9.1,5.8,9.1,5.9C9.1,5.8,9,5.8,9.1,5.9C9,5.8,9,5.9,9.1,5.9
									C9,6,9.1,5.9,9.1,5.9"/>
							</g>
						</g>
						<path id="XMLID_291_" class="st3" d="M8.5,6.1C8.5,6.1,8.5,6.1,8.5,6.1C8.5,6.1,8.5,6.1,8.5,6.1C8.5,6.1,8.5,6.1,8.5,6.1
							C8.5,6.1,8.5,6.1,8.5,6.1C8.5,6,8.5,6,8.5,6.1C8.6,6,8.6,6,8.6,5.9c0,0,0,0,0-0.1c0,0,0,0,0,0c0,0,0,0,0,0"/>
						<path id="XMLID_290_" class="st3" d="M8.4,6.1C8.5,6.1,8.5,6.1,8.4,6.1C8.5,6.1,8.5,6.1,8.4,6.1C8.5,6.1,8.5,6.1,8.4,6.1
							c0.1,0,0.1-0.1,0.1-0.2c0,0,0,0,0-0.1c0,0,0-0.1,0-0.1c0,0,0,0-0.1-0.1c0,0,0,0,0,0c0,0,0,0,0,0"/>
						<path id="XMLID_289_" class="st3" d="M8.4,6.1C8.4,6.1,8.4,6.1,8.4,6.1C8.5,6.1,8.5,6.1,8.4,6.1C8.5,6.1,8.5,6.1,8.4,6.1
							C8.5,6.1,8.5,6.1,8.4,6.1C8.5,6.1,8.5,6.1,8.4,6.1C8.5,6.1,8.5,6.1,8.4,6.1C8.5,6,8.5,6,8.5,5.9c0-0.1,0-0.1,0-0.2
							c0,0,0,0,0-0.1c0,0,0,0-0.1,0c0,0-0.1,0-0.1,0"/>
						<path id="XMLID_288_" class="st3" d="M8.4,6.1C8.4,6.1,8.4,6.1,8.4,6.1c0,0,0-0.1,0-0.1c0,0,0-0.1,0-0.1c0,0-0.1-0.1-0.1-0.1
							c0,0,0-0.1-0.1-0.1c0,0-0.1,0-0.1,0c0,0,0,0,0,0c0,0,0,0,0,0"/>
						<path id="XMLID_287_" class="st3" d="M7.8,5.7c0,0,0.1-0.1,0.2-0.1c0.1,0,0.1,0,0.2,0c0,0,0.1,0.1,0.1,0.1
							c0,0,0.1,0.1,0.1,0.1c0,0,0,0.1,0.1,0.1c0,0,0,0,0,0.1c0,0,0,0,0,0c0,0,0,0,0,0"/>
						<path id="XMLID_286_" class="st3" d="M7.6,5.8C7.6,5.8,7.6,5.8,7.6,5.8C7.6,5.8,7.6,5.8,7.6,5.8c0.1-0.1,0.1-0.1,0.1-0.1
							c0,0,0.1,0,0.1,0c0,0,0.1,0,0.1,0c0,0,0.2,0.1,0.1,0.1c0,0,0.1,0.1,0.2,0.1C8.3,6,8.4,6,8.4,6.1c0,0,0,0.1,0,0.1"/>
						<path id="XMLID_285_" class="st3" d="M7.5,6C7.5,6,7.5,6,7.5,6C7.5,6,7.5,6,7.5,6c0-0.1,0-0.1,0.1-0.2c0,0,0-0.1,0.1-0.1
							c0,0,0.1,0,0.1,0c0.1,0,0.2,0,0.2,0c0,0,0.1,0,0.1,0c0,0,0.2,0.1,0.2,0.1c0,0,0.1,0,0.1,0.1c0,0,0,0,0,0.1c0,0,0,0,0,0
							c0,0,0,0,0,0c0,0-0.1-0.1-0.1-0.1c0,0-0.1,0-0.1,0c0,0,0,0-0.1,0c0,0,0,0,0,0c0,0,0,0,0,0c0,0,0,0-0.1,0c0,0,0,0-0.1,0
							c0,0-0.1,0-0.2,0C7.6,6,7.6,6,7.5,6C7.5,6,7.5,6,7.5,6"/>
						<path id="XMLID_284_" class="st3" d="M7.5,6.1C7.5,6.1,7.5,6.1,7.5,6.1C7.5,6,7.5,6,7.5,6.1C7.6,6,7.6,6,7.7,6
							c0.1,0,0.2,0,0.3,0c0,0,0.1,0,0.1,0c0.1,0,0.1,0.1,0.2,0.1c0,0,0.1,0,0.1,0.1c0,0,0,0,0,0c0,0,0,0,0,0c0,0-0.1-0.1-0.1-0.1
							c0,0-0.1-0.1-0.1-0.1C8,6,8,6,8,6C7.9,6,7.8,6,7.8,6C7.8,6,7.6,6,7.5,6.1C7.5,6,7.5,6.1,7.5,6.1"/>
					</g>
				</g>
			</g>
			<g id="XMLID_807_">
				<path id="XMLID_283_" class="st3" d="M8.4,7.5c0,0-0.1-0.1-0.1-0.1c0,0,0,0-0.1,0c0,0-0.1,0-0.1,0c0,0-0.1-0.1-0.2-0.1
					c-0.1,0-0.1,0-0.2,0c-0.1,0-0.1,0.1-0.1,0.1c0,0,0,0.1,0,0.1c0,0,0,0.1,0,0.1c0,0,0,0,0,0.1c0,0,0,0,0,0.1c0,0,0.1,0,0.1,0
					c0,0,0.1,0,0.1,0c0,0,0,0,0,0c0.1,0,0.3,0,0.3,0c0,0,0.1,0,0.1,0"/>
				<path id="XMLID_282_" class="st4" d="M8.4,7.7c-0.1,0-0.1,0-0.2,0c0,0-0.1,0-0.1,0c0,0-0.2,0-0.3,0c0,0-0.1,0-0.1,0c0,0,0,0,0,0
					c0,0,0.1,0,0.1,0c0,0,0.1,0,0.1,0c0.1,0,0.1,0,0.2,0c0.1,0,0.1,0,0.2,0C8.3,7.6,8.3,7.6,8.4,7.7C8.4,7.6,8.4,7.6,8.4,7.7"/>
				<path id="XMLID_281_" class="st4" d="M8.4,7.6c0,0-0.2-0.1-0.4-0.1c-0.2,0-0.3-0.1-0.3,0c0,0,0-0.1,0-0.1c0,0,0,0,0,0
					c0,0,0,0,0,0c0,0,0,0,0,0c0,0,0,0,0-0.1c0,0,0.1,0,0.4,0.1C8.2,7.4,8.4,7.5,8.4,7.6"/>
			</g>
			<path id="XMLID_280_" class="st3" d="M7.7,7.7C7.7,7.7,7.7,7.7,7.7,7.7c0-0.1,0.1-0.1,0.2-0.1c0,0,0.1,0,0.1,0
				c0,0,0.2,0.1,0.2,0.1c0,0,0,0,0.1,0c0,0,0,0,0.1,0c0,0,0,0,0,0.1c0,0,0,0-0.1,0c-0.1,0-0.1,0-0.2,0c0,0-0.2-0.1-0.3-0.1
				C7.8,7.7,7.7,7.7,7.7,7.7C7.7,7.7,7.7,7.7,7.7,7.7"/>
			<path id="XMLID_279_" class="st4" d="M7.7,7.7C7.7,7.7,7.7,7.7,7.7,7.7c0.1-0.1,0.1-0.1,0.1-0.1c0.1,0,0.1,0,0.2,0.1
				c0,0,0.2,0.1,0.2,0.1c0,0,0.1,0,0.1,0c0,0,0,0-0.1,0.1c0,0,0,0-0.1,0c-0.1,0-0.1,0-0.2,0C8,7.8,8,7.8,7.9,7.8
				c-0.1,0-0.1-0.1-0.2-0.1C7.7,7.7,7.7,7.7,7.7,7.7"/>
			<path id="XMLID_278_" class="st3" d="M8.6,7.6C8.6,7.6,8.6,7.6,8.6,7.6c0-0.1,0-0.1,0-0.1c0,0,0,0,0-0.1c0,0,0,0,0,0
				c0,0,0.1-0.1,0.1-0.1c0,0,0.1-0.1,0.2-0.1c0,0,0.1,0,0.1,0c0.1,0,0.1,0,0.1,0c0,0,0.1,0,0.1,0c0,0,0,0.1,0,0.1c0,0,0,0.2,0,0.2"
				/>
			<path id="XMLID_277_" class="st4" d="M8.5,7.6c0.1,0,0.2-0.1,0.3-0.1c0.1,0,0.2,0,0.3,0c0,0,0,0,0,0.1c0,0-0.1,0-0.1,0.1
				c0,0-0.2,0-0.3,0C8.7,7.7,8.6,7.7,8.5,7.6"/>
			<path id="XMLID_276_" class="st4" d="M8.5,7.5c0,0,0.3-0.2,0.5-0.2c0.1,0,0.1,0,0.1,0l0,0.2c0,0-0.1-0.1-0.3,0
				c-0.2,0-0.4,0.1-0.4,0.2"/>
			<path id="XMLID_275_" class="st4" d="M8.4,7.7C8.5,7.7,8.5,7.8,8.4,7.7c0.1,0.1,0.2,0.1,0.2,0.1c0,0,0,0,0,0c0,0,0,0,0,0
				C8.6,7.7,8.5,7.7,8.4,7.7"/>
			<path id="XMLID_274_" class="st3" d="M8.5,7.8c0,0,0.1,0,0.1,0c0,0,0.1,0,0.1,0c0,0,0.1,0,0.1-0.1c0,0,0.1,0,0.1,0
				c0,0,0.1,0,0.1,0c0,0,0,0,0.1,0c0,0,0,0.1-0.1,0.1c0,0-0.1,0-0.1,0.1c-0.1,0-0.2,0.1-0.2,0.1c0,0-0.1,0-0.1,0
				C8.6,7.9,8.6,7.9,8.5,7.8C8.6,7.9,8.6,7.9,8.5,7.8C8.6,7.9,8.5,7.8,8.5,7.8"/>
			<path id="XMLID_273_" class="st4" d="M8.5,7.8c0,0,0.1,0,0.1,0c0,0,0.1,0,0.1,0c0,0,0.1-0.1,0.2-0.1c0,0,0.1,0,0.1,0
				c0,0,0,0,0.1,0c0,0,0,0,0,0c0,0,0,0-0.1,0.1c0,0-0.1,0-0.1,0c-0.1,0-0.1,0.1-0.2,0.1c0,0-0.1,0-0.1,0C8.6,7.9,8.6,7.9,8.5,7.8"/>
			<path id="XMLID_272_" class="st3" d="M8.4,7.4C8.3,7.4,8.3,7.5,8.4,7.4c0,0.1-0.1,0.2,0,0.3c0,0,0,0,0.1,0c0,0,0,0,0,0
				c0.1,0,0.1,0,0.1-0.1c0,0,0,0,0-0.1c0,0,0,0,0-0.1c0-0.1,0-0.1-0.1-0.1C8.5,7.4,8.5,7.4,8.4,7.4C8.4,7.4,8.4,7.4,8.4,7.4"/>
			<path id="XMLID_271_" class="st4" d="M8.5,7.4C8.5,7.4,8.4,7.4,8.5,7.4C8.4,7.4,8.4,7.5,8.5,7.4C8.4,7.5,8.4,7.6,8.4,7.6
				c0,0,0,0.1,0,0.1c0,0,0,0,0,0c0,0,0,0,0,0c0,0,0-0.1,0-0.1c0,0,0-0.1,0-0.1C8.5,7.5,8.5,7.5,8.5,7.4C8.5,7.4,8.5,7.4,8.5,7.4"/>
			<path id="XMLID_270_" class="st5" d="M8.4,7.4C8.4,7.4,8.4,7.4,8.4,7.4c0,0.1,0,0.1,0,0.1c0,0,0,0.1,0,0.1c0,0,0,0,0,0.1"/>
			<path id="XMLID_269_" class="st5" d="M8.5,7.4c0,0.1,0,0.1,0,0.2c0,0,0,0.1,0,0.1c0,0,0,0,0,0.1"/>
			<path id="XMLID_268_" class="st5" d="M7.7,7.3C7.7,7.3,7.7,7.3,7.7,7.3C7.8,7.3,7.8,7.3,7.7,7.3"/>
			<path id="XMLID_267_" class="st5" d="M7.7,7.4c0,0,0.1,0,0.1,0"/>
			<path id="XMLID_266_" class="st5" d="M7.7,7.4c0,0,0.1,0,0.1,0"/>
			<path id="XMLID_265_" class="st5" d="M9.1,7.3C9.1,7.3,9.1,7.3,9.1,7.3"/>
			<path id="XMLID_264_" class="st5" d="M9.1,7.4C9.1,7.4,9.1,7.4,9.1,7.4"/>
			<path id="XMLID_262_" class="st5" d="M9.1,7.4C9.1,7.4,9.1,7.4,9.1,7.4"/>
		</g>
	</g>
</g>
</svg>
