<?xml version="1.0" encoding="utf-8"?>
<!-- Generator: Adobe Illustrator 19.0.0, SVG Export Plug-In . SVG Version: 6.00 Build 0)  -->
<svg version="1.1" id="Modo_de_isolamento" xmlns="http://www.w3.org/2000/svg" xmlns:xlink="http://www.w3.org/1999/xlink" x="0px"
	 y="0px" viewBox="0 0 16.9 11.3" style="enable-background:new 0 0 16.9 11.3;" xml:space="preserve">
<style type="text/css">
	.st0{fill:#00A651;}
	.st1{fill:none;}
	.st2{fill:#FFF200;}
	.st3{fill:#00AEEF;}
	.st4{fill:#FFFFFF;}
</style>
<g id="XMLID_789_">
	<path id="XMLID_763_" class="st0" d="M2.2,11.3h12.5c1.2,0,2.2-1,2.2-2.2V2.2c0-1.2-1-2.2-2.2-2.2H2.2C1,0,0,1,0,2.2v6.9
		C0,10.3,1,11.3,2.2,11.3z"/>
	<path id="XMLID_762_" class="st1" d="M2.2,11.3h12.5c1.2,0,2.2-1,2.2-2.2V2.2c0-1.2-1-2.2-2.2-2.2H2.2C1,0,0,1,0,2.2v6.9
		C0,10.3,1,11.3,2.2,11.3z"/>
	<polygon id="XMLID_761_" class="st2" points="1.4,5.7 8.5,10.2 15.5,5.7 8.5,1.1 	"/>
	<g id="XMLID_790_">
		<circle id="XMLID_760_" class="st3" cx="8.5" cy="5.7" r="2.9"/>
		<g id="XMLID_865_">
			<path id="XMLID_759_" class="st4" d="M7.8,4.6C7,4.5,6.3,4.5,5.7,4.6c0,0.1-0.1,0.2-0.1,0.4c0.5-0.1,1.3-0.2,2.1,0
				c1.3,0.2,2.5,0.8,3.5,1.7c0-0.1,0.1-0.2,0.1-0.4C10.3,5.3,9.1,4.8,7.8,4.6z"/>
		</g>
		<g id="XMLID_825_">
			<path id="XMLID_862_" class="st3" d="M6.3,4.7C6.3,4.7,6.3,4.8,6.3,4.7C6.3,4.8,6.3,4.8,6.3,4.7C6.2,4.8,6.2,4.8,6.3,4.7
				c-0.1,0-0.1,0-0.1,0c0,0,0,0,0-0.1C6.2,4.7,6.2,4.7,6.3,4.7C6.3,4.7,6.3,4.7,6.3,4.7C6.3,4.7,6.3,4.7,6.3,4.7z M6.2,4.6
				C6.2,4.6,6.2,4.6,6.2,4.6c-0.1,0-0.1,0.1-0.1,0.1c0,0.1,0,0.1,0.1,0.1c0.1,0,0.1,0,0.1-0.1C6.3,4.6,6.3,4.6,6.2,4.6z"/>
			<path id="XMLID_859_" class="st3" d="M6.6,4.6C6.6,4.6,6.6,4.7,6.6,4.6C6.6,4.7,6.6,4.7,6.6,4.6L6.6,4.6L6.6,4.6L6.6,4.6z
				 M6.5,4.6l0,0.2l0,0l0-0.1l0.1,0c0,0,0,0,0,0l0,0c0,0,0,0,0,0l0,0c0,0,0,0,0,0l0,0c0,0,0,0,0,0c0,0,0,0,0,0c0-0.1,0-0.1-0.1-0.1
				L6.5,4.6z"/>
			<path id="XMLID_856_" class="st3" d="M6.9,4.6C6.9,4.6,6.9,4.7,6.9,4.6c0,0.1,0,0.1,0,0.1l-0.1,0L6.9,4.6L6.9,4.6z M6.8,4.6
				l0,0.2l0.1,0C7,4.8,7,4.8,7,4.7c0,0,0-0.1,0-0.1c0,0,0,0,0,0L6.8,4.6z"/>
			<path id="XMLID_854_" class="st3" d="M7.3,4.6L7.3,4.6l-0.1,0l0,0L7.3,4.6l0,0.1l-0.1,0l0,0l0.1,0l0,0l-0.2,0l0-0.2L7.3,4.6z"/>
			<path id="XMLID_852_" class="st3" d="M7.5,4.6l0,0.1L7.5,4.6l0.2,0l0,0.2l0,0l0-0.1c0,0,0,0,0,0c0,0,0,0,0,0L7.5,4.8l0,0L7.5,4.6
				C7.4,4.7,7.4,4.7,7.5,4.6l0,0.2l0,0L7.5,4.6L7.5,4.6z"/>
			<path id="XMLID_850_" class="st3" d="M7.9,4.7L7.9,4.7L7.9,4.7L7.9,4.7L7.9,4.7L7.9,4.7L7.9,4.7L7.9,4.7l0,0.1l0,0l-0.1,0l0-0.1
				L7.9,4.7z"/>
			<path id="XMLID_847_" class="st3" d="M8.4,4.8C8.5,4.8,8.5,4.8,8.4,4.8C8.5,4.9,8.4,4.9,8.4,4.8L8.4,4.8L8.4,4.8L8.4,4.8z
				 M8.3,4.8l0,0.2l0,0l0-0.1l0.1,0c0,0,0.1,0,0.1,0c0,0,0-0.1,0-0.1L8.3,4.8z"/>
			<path id="XMLID_843_" class="st3" d="M8.7,4.9C8.8,4.9,8.8,4.9,8.7,4.9C8.8,5,8.7,5,8.7,4.9L8.7,4.9L8.7,4.9L8.7,4.9z M8.6,4.8
				L8.6,5l0,0l0-0.1l0.1,0c0,0,0,0,0,0l0,0c0,0,0,0,0,0l0,0c0,0,0,0,0,0l0,0c0,0,0,0,0,0c0,0,0,0,0,0c0-0.1,0-0.1,0-0.1L8.6,4.8z"/>
			<path id="XMLID_840_" class="st3" d="M9.1,5.1C9,5.1,9,5.1,9.1,5.1C9,5.1,9,5.1,9.1,5.1c-0.1,0-0.1,0-0.1,0c0,0,0,0,0,0
				C9,5,9,5,9.1,5.1C9,5,9,5,9.1,5.1C9.1,5,9.1,5,9.1,5.1C9.1,5,9.1,5.1,9.1,5.1z M9,5C9,5,9,5,9,5C8.9,5,8.9,5,8.9,5
				c0,0.1,0,0.1,0.1,0.1c0.1,0,0.1,0,0.1-0.1C9.1,5,9.1,5,9,5z"/>
			<path id="XMLID_838_" class="st3" d="M9.4,5.2C9.4,5.1,9.4,5.1,9.4,5.2c-0.1-0.1-0.1-0.1-0.1,0c0,0,0,0.1,0,0.1
				C9.3,5.2,9.3,5.2,9.4,5.2C9.3,5.2,9.3,5.3,9.4,5.2L9.4,5.2L9.4,5.2L9.4,5.2c0,0.1,0,0.1,0,0.1c0,0-0.1,0-0.1,0c0,0-0.1,0-0.1-0.1
				c0,0,0,0,0-0.1C9.2,5.1,9.2,5.1,9.4,5.2C9.3,5.1,9.3,5.1,9.4,5.2C9.4,5.1,9.4,5.1,9.4,5.2L9.4,5.2z"/>
			<path id="XMLID_835_" class="st3" d="M9.6,5.3C9.6,5.3,9.7,5.3,9.6,5.3C9.6,5.3,9.6,5.3,9.6,5.3L9.6,5.3L9.6,5.3L9.6,5.3z
				 M9.6,5.2L9.5,5.4l0,0l0-0.1l0.1,0c0,0,0,0,0,0l0,0c0,0,0,0,0,0l0,0c0,0,0,0,0,0l0,0c0,0,0,0,0,0c0,0,0,0,0,0c0,0,0-0.1,0-0.1
				L9.6,5.2z"/>
			<path id="XMLID_833_" class="st3" d="M10,5.4L10,5.4l-0.1,0l0,0L10,5.4L10,5.4l-0.2,0l0,0l0.1,0.1l0,0L9.7,5.5l0.1-0.2L10,5.4z"
				/>
			<path id="XMLID_831_" class="st3" d="M10.2,5.6C10.2,5.6,10.2,5.5,10.2,5.6C10.1,5.5,10.1,5.5,10.2,5.6
				C10.1,5.5,10.1,5.5,10.2,5.6L10.2,5.6C10.2,5.6,10.2,5.6,10.2,5.6C10.2,5.6,10.2,5.7,10.2,5.6C10.1,5.7,10.1,5.7,10.2,5.6
				C10,5.6,10,5.6,10,5.6c0,0,0,0,0-0.1l0,0C10.1,5.6,10,5.6,10.2,5.6C10.1,5.7,10.1,5.7,10.2,5.6C10.1,5.6,10.1,5.6,10.2,5.6
				L10.2,5.6c-0.1,0-0.1,0-0.1-0.1C10.1,5.5,10.1,5.5,10.2,5.6C10.2,5.5,10.2,5.5,10.2,5.6C10.2,5.6,10.2,5.6,10.2,5.6L10.2,5.6z"/>
			<path id="XMLID_829_" class="st3" d="M10.4,5.7C10.4,5.7,10.4,5.7,10.4,5.7C10.4,5.7,10.4,5.7,10.4,5.7
				C10.4,5.7,10.4,5.7,10.4,5.7L10.4,5.7C10.4,5.8,10.4,5.8,10.4,5.7C10.4,5.8,10.4,5.8,10.4,5.7c0,0.1-0.1,0.1-0.1,0.1
				c0,0,0,0-0.1-0.1c0,0,0,0,0-0.1l0,0C10.3,5.8,10.3,5.8,10.4,5.7C10.4,5.8,10.4,5.8,10.4,5.7C10.4,5.8,10.4,5.8,10.4,5.7L10.4,5.7
				C10.3,5.7,10.3,5.7,10.4,5.7C10.4,5.6,10.4,5.6,10.4,5.7C10.5,5.7,10.5,5.7,10.4,5.7C10.5,5.7,10.5,5.7,10.4,5.7L10.4,5.7z"/>
			<path id="XMLID_826_" class="st3" d="M10.7,6C10.7,6,10.7,6,10.7,6C10.6,6,10.6,6,10.7,6c-0.1,0-0.1,0-0.1,0
				C10.6,5.9,10.6,5.9,10.7,6c-0.1-0.1-0.1-0.1-0.1-0.1C10.6,5.9,10.6,5.9,10.7,6C10.7,5.9,10.7,5.9,10.7,6
				C10.7,5.9,10.7,5.9,10.7,6z M10.7,5.8C10.7,5.8,10.6,5.8,10.7,5.8c-0.1,0-0.1,0-0.1,0c-0.1,0.1,0,0.1,0,0.1c0.1,0,0.1,0,0.1,0
				C10.8,5.9,10.8,5.9,10.7,5.8z"/>
		</g>
		<polygon id="XMLID_735_" class="st4" points="6,5.1 5.9,5.1 6,5.2 6,5.3 6.1,5.2 6.2,5.3 6.1,5.2 6.2,5.1 6.1,5.1 6.1,5 		"/>
		<polygon id="XMLID_734_" class="st4" points="7.3,5.7 7.2,5.7 7.3,5.8 7.2,5.9 7.3,5.8 7.4,5.9 7.4,5.8 7.4,5.7 7.3,5.7 7.3,5.6 
					"/>
		<polygon id="XMLID_733_" class="st4" points="8,5.2 8,5.2 8,5.2 8,5.3 8.1,5.2 8.1,5.3 8.1,5.2 8.1,5.2 8.1,5.2 8.1,5.1 		"/>
		<polygon id="XMLID_732_" class="st4" points="9.2,5.5 9.2,5.5 9.2,5.6 9.2,5.6 9.2,5.6 9.3,5.6 9.3,5.6 9.3,5.5 9.3,5.5 9.2,5.5 
					"/>
		<polygon id="XMLID_731_" class="st4" points="8.4,6.2 8.3,6.2 8.4,6.2 8.4,6.3 8.4,6.2 8.5,6.3 8.4,6.2 8.5,6.2 8.4,6.2 8.4,6.1 
					"/>
		<polygon id="XMLID_730_" class="st4" points="8.1,6.5 8,6.5 8.1,6.5 8.1,6.6 8.1,6.5 8.2,6.6 8.1,6.5 8.2,6.5 8.1,6.5 8.1,6.4 		
			"/>
		<polygon id="XMLID_729_" class="st4" points="6.9,6.7 6.8,6.7 6.9,6.7 6.9,6.8 6.9,6.7 6.9,6.8 6.9,6.7 7,6.7 6.9,6.7 6.9,6.6 		
			"/>
		<polygon id="XMLID_728_" class="st4" points="6.6,6.2 6.5,6.2 6.6,6.2 6.5,6.3 6.6,6.2 6.6,6.3 6.6,6.2 6.7,6.2 6.6,6.2 6.6,6.1 
					"/>
		<polygon id="XMLID_727_" class="st4" points="5.9,6.6 5.9,6.6 5.9,6.7 5.9,6.7 6,6.7 6,6.7 6,6.7 6,6.6 6,6.6 6,6.6 		"/>
		<polygon id="XMLID_726_" class="st4" points="6.8,7 6.7,7 6.7,7 6.7,7.1 6.8,7 6.8,7.1 6.8,7 6.9,7 6.8,7 6.8,6.9 		"/>
		<polygon id="XMLID_725_" class="st4" points="8.4,6.7 8.3,6.7 8.4,6.7 8.4,6.8 8.4,6.8 8.5,6.8 8.4,6.7 8.5,6.7 8.4,6.7 8.4,6.7 
					"/>
		<polygon id="XMLID_724_" class="st4" points="8.8,6.4 8.7,6.4 8.7,6.5 8.7,6.5 8.8,6.5 8.8,6.5 8.8,6.5 8.8,6.4 8.8,6.4 8.8,6.4 
					"/>
		<polygon id="XMLID_723_" class="st4" points="9.1,7.3 9,7.3 9.1,7.4 9,7.4 9.1,7.4 9.1,7.4 9.1,7.4 9.2,7.3 9.1,7.3 9.1,7.3 		"/>
		<polygon id="XMLID_722_" class="st4" points="9.5,7.4 9.5,7.4 9.5,7.4 9.5,7.5 9.6,7.5 9.6,7.5 9.6,7.4 9.6,7.4 9.6,7.4 9.6,7.4 
					"/>
		<polygon id="XMLID_721_" class="st4" points="9.9,7.3 9.8,7.3 9.9,7.4 9.9,7.4 9.9,7.4 10,7.4 9.9,7.4 10,7.3 9.9,7.3 9.9,7.3 		
			"/>
		<polygon id="XMLID_720_" class="st4" points="10.2,7.4 10.1,7.4 10.2,7.4 10.2,7.5 10.2,7.4 10.3,7.5 10.2,7.4 10.3,7.4 10.2,7.4 
			10.2,7.3 		"/>
		<polygon id="XMLID_719_" class="st4" points="10.4,7.2 10.4,7.2 10.4,7.3 10.4,7.3 10.4,7.3 10.5,7.3 10.5,7.3 10.5,7.2 10.5,7.2 
			10.4,7.2 		"/>
		<polygon id="XMLID_718_" class="st4" points="10.6,7 10.5,7 10.6,7.1 10.6,7.1 10.6,7.1 10.7,7.1 10.6,7.1 10.7,7 10.6,7 10.6,7 
					"/>
		<polygon id="XMLID_717_" class="st4" points="10.9,6.8 10.8,6.8 10.8,6.8 10.8,6.9 10.9,6.8 10.9,6.9 10.9,6.8 10.9,6.8 10.9,6.8 
			10.9,6.7 		"/>
		<polygon id="XMLID_716_" class="st4" points="9.9,7.7 9.9,7.7 9.9,7.7 9.9,7.8 9.9,7.7 10,7.8 10,7.7 10,7.7 9.9,7.7 9.9,7.6 		
			"/>
		<polygon id="XMLID_715_" class="st4" points="9.9,8 9.9,8 9.9,8 9.9,8.1 9.9,8 10,8.1 10,8 10,8 9.9,8 9.9,7.9 		"/>
		<polygon id="XMLID_714_" class="st4" points="8.4,8 8.3,8 8.4,8.1 8.4,8.1 8.4,8.1 8.5,8.1 8.4,8.1 8.5,8 8.4,8 8.4,8 		"/>
		<polygon id="XMLID_713_" class="st4" points="7.2,7.2 7.1,7.2 7.2,7.3 7.1,7.4 7.2,7.3 7.3,7.4 7.3,7.3 7.3,7.2 7.2,7.2 7.2,7.1 
					"/>
		<polygon id="XMLID_712_" class="st4" points="8.4,7 8.3,7 8.4,7.1 8.3,7.2 8.4,7.1 8.5,7.2 8.5,7.1 8.6,7 8.4,7 8.4,6.9 		"/>
		<polygon id="XMLID_711_" class="st4" points="9.3,4.7 9.2,4.7 9.3,4.8 9.2,4.9 9.3,4.8 9.4,4.9 9.4,4.8 9.5,4.8 9.4,4.8 9.4,4.7 
					"/>
		<polygon id="XMLID_710_" class="st4" points="9.3,7.7 9.2,7.7 9.3,7.8 9.2,7.9 9.3,7.8 9.4,7.9 9.4,7.8 9.4,7.7 9.3,7.7 9.3,7.6 
					"/>
		<polygon id="XMLID_709_" class="st4" points="10.5,6.7 10.4,6.7 10.5,6.7 10.4,6.8 10.5,6.8 10.6,6.8 10.6,6.7 10.6,6.7 10.5,6.7 
			10.5,6.6 		"/>
		<polygon id="XMLID_708_" class="st4" points="6.3,6.4 6.2,6.4 6.3,6.4 6.2,6.5 6.3,6.5 6.4,6.5 6.4,6.4 6.5,6.4 6.4,6.4 6.3,6.3 
					"/>
	</g>
</g>
</svg>
