<?xml version="1.0" encoding="utf-8"?>
<!-- Generator: Adobe Illustrator 19.0.0, SVG Export Plug-In . SVG Version: 6.00 Build 0)  -->
<svg version="1.1" id="Modo_de_isolamento" xmlns="http://www.w3.org/2000/svg" xmlns:xlink="http://www.w3.org/1999/xlink" x="0px"
	 y="0px" viewBox="0 0 16.9 11.3" style="enable-background:new 0 0 16.9 11.3;" xml:space="preserve">
<style type="text/css">
	.st0{fill:#00AEEF;}
	.st1{fill:#FFFFFF;}
	.st2{fill:#FFDD00;stroke:#000000;stroke-width:0.1;stroke-linejoin:round;stroke-miterlimit:10;}
	.st3{fill:none;}
</style>
<g id="XMLID_1415_">
	<path id="XMLID_783_" class="st0" d="M2.2,11.3h12.5c1.2,0,2.2-1,2.2-2.2V2.2c0-1.2-1-2.2-2.2-2.2H2.2C1,0,0,1,0,2.2v6.9
		C0,10.3,1,11.3,2.2,11.3z"/>
	<rect id="XMLID_782_" y="3.8" class="st1" width="16.9" height="3.8"/>
	<g id="XMLID_1417_">
		<path id="XMLID_781_" class="st2" d="M8.4,4.7l0.1-0.7l0.1,0.7c0.1-0.1,0.1-0.2,0.1-0.3C8.7,4.1,8.8,4,8.9,4
			C8.8,4.1,8.8,4.2,8.8,4.3c0,0.2,0,0.2,0,0.4l0.4-0.7L8.9,4.8c0.1,0,0.2-0.1,0.2-0.3c0.1-0.2,0.3-0.3,0.4-0.3
			C9.3,4.4,9.3,4.4,9.3,4.6c0,0.2-0.1,0.2-0.2,0.3l0.6-0.5L9.2,5c0.1,0,0.2,0,0.3-0.2C9.7,4.7,9.9,4.7,10,4.8C9.8,4.8,9.7,4.8,9.6,5
			C9.5,5.1,9.5,5.1,9.3,5.2L10,5L9.4,5.4c0.1,0,0.2,0,0.3,0c0.2-0.1,0.4,0,0.4,0.1c-0.2,0-0.3,0-0.4,0C9.6,5.5,9.6,5.5,9.4,5.5
			l0.7,0.1L9.4,5.7c0.1,0,0.2,0.1,0.3,0.1c0.2,0,0.4,0.2,0.4,0.2C10,6,9.9,6,9.8,6c-0.2,0-0.2,0-0.4,0L10,6.3L9.3,6.1
			c0,0.1,0.1,0.2,0.3,0.2c0.2,0.1,0.3,0.3,0.3,0.4C9.7,6.5,9.7,6.5,9.5,6.4c-0.2,0-0.2-0.1-0.3-0.2l0.5,0.6L9.1,6.4
			c0,0.1,0,0.2,0.2,0.3c0.2,0.2,0.1,0.4,0.1,0.4c0-0.2-0.1-0.3-0.2-0.3C9,6.7,9,6.6,8.9,6.5l0.2,0.7L8.7,6.6c0,0.1,0,0.2,0,0.3
			c0.1,0.2,0,0.4-0.1,0.4c0-0.2,0-0.3,0-0.4C8.6,6.8,8.6,6.8,8.6,6.6L8.5,7.3L8.4,6.6C8.3,6.7,8.3,6.8,8.3,6.9
			c0,0.2-0.2,0.4-0.2,0.4c0.1-0.1,0.1-0.2,0.1-0.4c0-0.2,0-0.2,0-0.4L7.8,7.2L8,6.5c-0.1,0-0.2,0.1-0.2,0.3C7.7,7,7.5,7,7.4,7
			c0.2-0.1,0.2-0.2,0.2-0.3c0-0.2,0.1-0.2,0.2-0.3L7.3,6.8l0.5-0.6c-0.1,0-0.2,0-0.3,0.2C7.3,6.6,7.1,6.6,7,6.5
			c0.2,0,0.3-0.1,0.3-0.2c0.1-0.1,0.1-0.2,0.3-0.2L6.9,6.3l0.7-0.4c-0.1,0-0.2,0-0.3,0C7,6,6.8,5.9,6.8,5.9c0.2,0,0.3,0,0.4,0
			c0.1-0.1,0.2-0.1,0.4-0.1L6.8,5.6l0.7-0.1C7.5,5.5,7.4,5.4,7.2,5.4C7,5.4,6.8,5.3,6.8,5.2C7,5.3,7,5.3,7.2,5.3c0.2,0,0.2,0,0.4,0
			L6.9,5l0.7,0.2C7.6,5.1,7.5,5,7.4,5C7.1,4.9,7.1,4.7,7.1,4.6c0.1,0.2,0.2,0.2,0.3,0.2c0.2,0,0.2,0.1,0.3,0.2L7.3,4.4l0.6,0.5
			c0-0.1,0-0.2-0.2-0.3C7.5,4.4,7.6,4.2,7.6,4.2c0,0.2,0.1,0.3,0.2,0.3C7.9,4.6,7.9,4.6,8,4.8L7.8,4.1l0.4,0.7c0-0.1,0-0.2,0-0.3
			C8.1,4.2,8.2,4,8.2,3.9c0,0.2,0,0.3,0,0.4C8.3,4.5,8.4,4.5,8.4,4.7z"/>
		<path id="XMLID_780_" d="M8.4,5.7c0-0.1,0-0.4-0.2-0.4C8,5.2,7.9,5.4,7.9,5.4c0.1-0.1,0.2-0.2,0.3-0.1C8.3,5.3,8.4,5.4,8.4,5.7z"
			/>
		<path id="XMLID_779_" d="M8.5,5.7c0-0.1,0-0.4,0.2-0.4c0.2,0,0.3,0.1,0.3,0.2C9,5.3,8.9,5.3,8.8,5.3C8.6,5.3,8.5,5.4,8.5,5.7z"/>
		<path id="XMLID_778_" d="M8.4,5.8c0,0-0.1,0.1,0.1,0.1c0.1,0,0.1-0.1,0.1-0.1c0.1,0,0.1,0.2-0.1,0.2C8.3,5.9,8.3,5.8,8.4,5.8z"/>
		<path id="XMLID_777_" d="M8.3,6.1c0,0,0.1-0.1,0.1-0.1c0,0,0,0,0.1,0c0,0,0,0,0.1,0c0,0,0.1,0,0.1,0.1C8.6,6,8.5,6,8.5,6
			c0,0,0,0,0,0c0,0,0,0-0.1,0C8.4,6,8.3,6.1,8.3,6.1z"/>
		<path id="XMLID_776_" d="M8.4,6.2c0.1,0.1,0.2,0.1,0.3,0C8.6,6.2,8.4,6.2,8.4,6.2z"/>
		<path id="XMLID_775_" d="M8.4,6.1c0,0.1,0.1,0,0.1,0C8.6,6.1,8.4,6.2,8.4,6.1z"/>
		<g id="XMLID_1425_">
			<path id="XMLID_1427_" d="M8.3,5.5C8.2,5.4,8.1,5.4,8.1,5.4C8,5.4,8,5.4,7.9,5.5l0,0l0,0c0,0.1,0.1,0.1,0.1,0.1
				C8.1,5.6,8.2,5.6,8.3,5.5L8.3,5.5L8.3,5.5z M8.1,5.6C8,5.6,8,5.5,8.1,5.6C8,5.5,8,5.4,8.1,5.4C8.1,5.4,8.2,5.5,8.1,5.6
				C8.2,5.5,8.1,5.6,8.1,5.6z M7.9,5.5C8,5.5,8,5.5,7.9,5.5C8,5.5,8,5.5,7.9,5.5C8,5.5,8,5.6,7.9,5.5C8,5.6,8,5.5,7.9,5.5z M8.2,5.6
				C8.2,5.5,8.2,5.5,8.2,5.6c0-0.1,0-0.1,0-0.1C8.2,5.5,8.2,5.5,8.2,5.6C8.2,5.5,8.2,5.5,8.2,5.6z"/>
			<circle id="XMLID_770_" cx="8.1" cy="5.5" r="0"/>
		</g>
		<g id="XMLID_1418_">
			<path id="XMLID_1420_" d="M9,5.5c0-0.1-0.1-0.1-0.2-0.1c-0.1,0-0.1,0-0.2,0.1l0,0l0,0c0.1,0.1,0.1,0.1,0.2,0.1
				C8.9,5.6,9,5.6,9,5.5L9,5.5L9,5.5z M8.8,5.6C8.8,5.6,8.8,5.5,8.8,5.6c-0.1-0.1,0-0.1,0-0.1C8.9,5.4,8.9,5.5,8.8,5.6
				C8.9,5.5,8.9,5.6,8.8,5.6z M8.8,5.4C8.8,5.5,8.7,5.5,8.8,5.4c0,0.1,0,0.1,0,0.1C8.7,5.5,8.7,5.5,8.8,5.4C8.7,5.5,8.7,5.5,8.8,5.4
				z M8.9,5.6C8.9,5.6,8.9,5.5,8.9,5.6c0-0.1,0-0.1,0-0.1C8.9,5.5,9,5.5,8.9,5.6C9,5.5,8.9,5.6,8.9,5.6z"/>
			<circle id="XMLID_765_" cx="8.8" cy="5.5" r="0"/>
		</g>
	</g>
	<path id="XMLID_764_" class="st3" d="M14.7,11.3H2.2C1,11.3,0,10.3,0,9.1V2.2C0,1,1,0,2.2,0h12.5c1.2,0,2.2,1,2.2,2.2v6.9
		C16.9,10.3,15.9,11.3,14.7,11.3z"/>
</g>
</svg>
