<svg 
 xmlns="http://www.w3.org/2000/svg"
 xmlns:xlink="http://www.w3.org/1999/xlink"
 width="25px" height="25px">
<path fill-rule="evenodd"  fill="rgb(0, 175, 240)"
 d="M23.712,14.513 L23.753,14.755 C23.761,14.713 23.766,14.670 23.774,14.628 C24.329,15.625 24.623,16.752 24.623,17.900 C24.623,19.696 23.926,21.385 22.658,22.655 C21.391,23.926 19.707,24.625 17.915,24.625 C16.754,24.625 15.618,24.322 14.614,23.753 C14.657,23.745 14.698,23.740 14.741,23.732 L14.499,23.689 C14.537,23.712 14.576,23.731 14.614,23.753 C13.962,23.868 13.295,23.929 12.629,23.929 C11.099,23.929 9.614,23.629 8.217,23.035 C6.867,22.464 5.655,21.644 4.614,20.602 C3.574,19.558 2.756,18.344 2.186,16.991 C1.594,15.590 1.295,14.102 1.295,12.569 C1.295,11.912 1.354,11.254 1.466,10.611 C1.487,10.649 1.505,10.688 1.527,10.725 L1.486,10.487 C1.478,10.528 1.473,10.569 1.466,10.611 C0.915,9.618 0.622,8.493 0.622,7.350 C0.622,5.554 1.320,3.864 2.587,2.595 C3.854,1.324 5.539,0.625 7.331,0.625 C8.429,0.625 9.513,0.899 10.478,1.413 C10.438,1.421 10.397,1.429 10.357,1.437 L10.596,1.474 C10.557,1.453 10.517,1.434 10.478,1.413 C10.480,1.412 10.481,1.412 10.483,1.412 C11.186,1.277 11.908,1.209 12.629,1.209 C14.159,1.209 15.643,1.509 17.040,2.102 C18.389,2.674 19.602,3.493 20.642,4.536 C21.684,5.579 22.500,6.794 23.071,8.147 C23.663,9.547 23.962,11.035 23.962,12.569 C23.962,13.260 23.898,13.952 23.774,14.628 C23.753,14.590 23.734,14.551 23.712,14.513 ZM12.228,7.549 C15.190,7.549 14.919,9.589 16.390,9.589 C17.164,9.589 17.842,9.133 17.842,8.349 C17.842,6.519 14.919,5.146 12.441,5.146 C9.750,5.146 6.885,6.291 6.885,9.341 C6.885,10.811 7.408,12.374 10.292,13.099 L13.874,13.995 C14.958,14.263 15.229,14.874 15.229,15.425 C15.229,16.342 14.320,17.237 12.674,17.237 C9.460,17.237 9.906,14.757 8.183,14.757 C7.408,14.757 6.846,15.292 6.846,16.055 C6.846,17.542 8.648,19.526 12.674,19.526 C16.506,19.526 18.403,17.675 18.403,15.196 C18.403,13.595 17.667,11.896 14.764,11.248 L12.113,10.659 C11.105,10.428 9.944,10.124 9.944,9.171 C9.944,8.216 10.758,7.549 12.228,7.549 Z"/>
</svg>